<svg xmlns:dc="http://purl.org/dc/elements/1.1/" xmlns:cc="http://creativecommons.org/ns#" xmlns:rdf="http://www.w3.org/1999/02/22-rdf-syntax-ns#" xmlns:svg="http://www.w3.org/2000/svg" xmlns="http://www.w3.org/2000/svg" xmlns:sodipodi="http://sodipodi.sourceforge.net/DTD/sodipodi-0.dtd" xmlns:inkscape="http://www.inkscape.org/namespaces/inkscape" viewBox="0 0 26.458333 33.0729175" version="1.1" x="0px" y="0px"><g transform="translate(0,-270.54165)"><path style="" d="m 12.060414,272.42391 c 0,0 -0.03274,0.0409 -0.04912,0.0654 -0.04916,0.0655 -0.09015,0.15569 -0.155692,0.19666 -0.09831,0.0737 -0.221233,0.11476 -0.360508,0.0656 -0.114697,-0.0409 -0.245683,-0.0574 -0.352187,0.0573 -0.0082,0 -0.01651,-0.008 -0.0083,-0.0246 -0.0082,0.041 -0.03267,0.082 -0.02448,0.11473 0.0082,0.0573 0.02451,0.12285 0.05729,0.17201 0.07373,0.12289 0.08196,0.23759 0.0328,0.36867 -0.03277,0.1065 -0.04093,0.2212 -0.04913,0.3277 -0.0082,0.10651 0.04906,0.1476 0.147371,0.13122 0.04916,-0.008 0.09841,-0.0164 0.139371,-0.0328 0.09831,-0.041 0.188399,-0.0738 0.25394,0.0491 0.0082,0.008 0.01645,0.008 0.02464,0.0163 0.04096,0.0491 0.09012,0.0984 0.12289,0.1557 0.02458,0.041 0.04906,0.0901 0.106408,0.0819 0.05735,-0.008 0.09022,-0.0409 0.09841,-0.0983 l 0.07361,-0.41779 c 0,-0.0246 0.01642,-0.0493 0.0328,-0.0493 0.07373,-0.0164 0.155692,-0.0244 0.237619,-0.0326 0.04915,-0.008 0.106504,-0.0246 0.122889,-0.0738 0.0082,-0.0491 -6.4e-5,-0.11474 -0.02464,-0.1557 -0.04096,-0.0655 -0.09822,-0.12286 -0.147372,-0.17202 -0.06554,-0.0573 -0.106472,-0.13117 -0.09009,-0.22129 0.03277,-0.15566 -0.0082,-0.31132 -0.07377,-0.45059 -0.01639,-0.0328 -0.07377,-0.0572 -0.114729,-0.0736 z m 0.02464,0.22113 c 0.07373,0.0983 0.06548,0.19663 0.05729,0.28675 -0.0082,0.0491 -0.0082,0.0984 -0.0082,0.14753 0,0.0573 0.02461,0.0983 0.07377,0.13921 0.05735,0.0573 0.106376,0.12295 0.155532,0.1885 -0.0082,0.008 -0.0082,0.0163 -0.0082,0.0245 -0.07373,0 -0.139243,0.0163 -0.212977,0.008 -0.147467,-0.0164 -0.171981,7e-5 -0.180174,0.14754 -0.0082,0.0983 -0.01642,0.18846 -0.0328,0.27858 0,0.0164 -0.01645,0.0327 -0.02464,0.0573 l -0.188334,-0.18834 c -0.02458,-0.0328 -0.05735,-0.0492 -0.08193,-0.0738 -0.04096,-0.0328 -0.08193,-0.0327 -0.122889,-0.008 -0.06554,0.0328 -0.139371,0.0573 -0.221297,0.0901 -0.02458,-0.0983 0.0083,-0.17202 0.02464,-0.25395 0.01639,-0.0655 0.04093,-0.13108 0.04912,-0.20482 0.01639,-0.10649 -0.05728,-0.18845 -0.09825,-0.27858 -0.01638,-0.0328 -0.03283,-0.0738 -0.02464,-0.0984 0.0082,-0.0164 0.06551,-0.0327 0.09009,-0.0327 0.09831,0.008 0.188431,0.0327 0.286743,0.0491 0.03277,0.008 0.0738,0.0164 0.106568,0 0.114697,-0.0573 0.229298,-0.12295 0.311224,-0.22945 0.01639,-0.0164 0.0329,-0.0246 0.04928,-0.0491 z m 8.034866,1.04873 c -0.03567,0.005 -0.07069,0.0235 -0.104487,0.0573 -0.04916,0.0573 -0.08186,0.13108 -0.09825,0.20481 -0.02458,0.0655 -0.01645,0.1475 0.05729,0.19666 0.07373,0.0491 0.139242,0.041 0.212976,-0.008 0.07373,-0.0491 0.09841,-0.12296 0.13937,-0.1885 0.04096,-0.0819 0.0327,-0.12285 -0.02464,-0.17201 -0.06145,-0.0666 -0.122809,-0.0979 -0.182254,-0.0901 z m 0.01024,0.14337 c 0.0091,0 0.01911,0.004 0.0296,0.009 -0.02427,-0.0106 -0.04663,-0.007 -0.06817,0.0112 0.01208,-0.0133 0.02459,-0.0207 0.03856,-0.0207 z m 0.09009,0.0614 c 0,0.0164 0.0082,0.0572 0,0.0654 -0.04096,0.041 -0.08189,0.0655 -0.13105,0.0901 -0.0094,0.005 -0.01848,0.006 -0.02688,0.004 0.0061,-2.7e-4 0.01233,-0.001 0.01872,-0.004 0.04916,-0.0246 0.09828,-0.0573 0.13105,-0.0901 0.01639,-0.008 0.0082,-0.0491 0.0082,-0.0654 z m -3.416267,1.86782 c -0.04096,0.008 -0.09009,0.0411 -0.13105,0.0575 -0.07373,0.0655 -0.131179,0.27026 -0.09841,0.35219 0.0082,0.0246 0.03286,0.0493 0.05745,0.0575 0.12289,0.0491 0.2621,-0.0164 0.303063,-0.14753 0.0082,-0.0164 0.01645,-0.0328 0.02464,-0.0409 0.05735,-0.0656 0.04093,-0.13112 0.0082,-0.19666 -0.03277,-0.0655 -0.09831,-0.0901 -0.163852,-0.0819 z m -0.02352,0.16177 c 0.01127,0 0.02349,0.002 0.03168,0.002 v 0.1557 c -0.04096,0.008 -0.06548,0.0245 -0.09825,0.0163 -0.01639,0 -0.0328,-0.0328 -0.0328,-0.041 0.01639,-0.041 0.041,-0.0819 0.07377,-0.12288 0.0041,-0.008 0.01433,-0.0102 0.0256,-0.0102 z m -4.039355,0.25907 c -0.131338,-0.004 -0.264917,10e-4 -0.393951,0.0379 -0.196623,0.0573 -0.393278,0.13941 -0.565324,0.2541 -0.09831,0.0655 -0.188366,0.11467 -0.2621,0.21298 -0.04096,0.0655 -0.114697,0.11463 -0.163853,0.18017 -0.08193,0.0983 -0.155692,0.21307 -0.237619,0.31139 -0.08193,0.1065 -0.171981,0.21294 -0.2621,0.30306 -0.114697,0.12289 -0.262293,0.19672 -0.417952,0.26226 -0.180238,0.0819 -0.352156,0.18843 -0.5242013,0.28675 -0.032773,0.0163 -0.065573,0.049 -0.073766,0.0736 -0.040965,0.11469 -0.08199,0.2213 -0.065605,0.34418 0.01639,0.10651 0.032736,0.20475 0.049126,0.30307 0.00819,0.041 0.00822,0.082 -0.00816,0.11472 -0.057348,0.13109 -0.1393066,0.24585 -0.1556919,0.39332 -0.01639,0.0983 -0.049027,0.19659 -0.073606,0.2949 -0.024575,0.13108 -0.041088,0.27849 -0.1312106,0.38499 -0.081926,0.0901 -0.1392745,0.19666 -0.1638527,0.31955 -0.016383,0.1065 -0.032643,0.21304 -0.032643,0.31954 0,0.0819 -1.315e-4,0.0982 -0.090247,0.10641 -0.1065046,0.0164 -0.2129771,0.0164 -0.2949034,0.10657 -0.024575,0.0328 -0.040996,0.0655 -0.073766,0.0982 -0.1392751,0.13928 -0.204784,0.30326 -0.212977,0.49988 0,0.041 -0.00819,0.0983 -0.040965,0.12289 -0.049156,0.0328 -0.1228257,0.049 -0.1801738,0.0736 -0.1474675,0.0573 -0.2539399,0.15569 -0.2949028,0.31954 -0.032773,0.1229 -0.016513,0.23762 0.032643,0.36051 0.024575,0.0573 0.065637,0.12296 0.016482,0.1885 -0.040965,0.041 -0.081894,0.0901 -0.1310501,0.12289 -0.2212015,0.15566 -0.2868061,0.36047 -0.229458,0.61444 0.01639,0.0573 0.041027,0.11467 0.065605,0.17202 -0.098312,0.17205 -0.2540362,0.27845 -0.3933107,0.39315 -0.073734,0.0574 -0.1555962,0.12292 -0.2211373,0.19666 -0.1638527,0.18023 -0.3277696,0.36057 -0.475237,0.54899 -0.098312,0.13109 -0.1884945,0.27849 -0.2704209,0.42596 -0.065541,0.13108 -0.1228577,0.27036 -0.1720136,0.40964 -0.065541,0.17204 -0.1391788,0.34408 -0.1473717,0.53251 -0.016383,0.2212 -0.041094,0.44237 -0.049286,0.66357 0,0.15566 0.00819,0.31958 0.040965,0.47524 0.040965,0.19663 0.1066009,0.38508 0.1803343,0.56533 0.057348,0.13927 0.1310501,0.27842 0.2129765,0.4013 0.073734,0.11471 0.1803021,0.22121 0.2704214,0.32771 0.040965,0.0491 0.090055,0.0821 0.1392109,0.13122 0.049157,0.0573 0.1638849,0.0573 0.1556919,0.16385 0,0.0819 0.016322,0.1801 -0.024643,0.23745 -0.081926,0.12289 -0.073766,0.25408 -0.1147284,0.38516 -0.040965,0.12288 -0.049027,0.25393 -0.073606,0.37683 -0.024581,0.11469 -0.057348,0.23764 -0.081927,0.35234 -0.032773,0.17205 -0.057447,0.34403 -0.098407,0.50788 -0.032773,0.12289 -0.057286,0.24575 -0.057286,0.37683 0,0.0655 -0.00825,0.13115 -0.024643,0.18849 -0.040965,0.1147 -0.09828,0.22121 -0.1310506,0.32771 -0.032773,0.0983 -0.057286,0.20472 -0.016322,0.31122 0.016383,0.0491 0.032643,0.10654 0.032643,0.1557 0.00819,0.26216 -0.122825,0.48346 -0.2211366,0.71285 -0.040965,0.0819 -0.032773,0.13924 0,0.21298 0.049156,0.0983 0.081894,0.20484 0.049126,0.31955 -0.065541,0.21301 -0.1392751,0.41779 -0.2048162,0.6226 -0.073733,0.2294 -0.065445,0.45879 -0.024483,0.69638 0.00819,0.0655 0.032705,0.13927 0.057286,0.20481 0.024575,0.0574 0.040996,0.12283 0.073766,0.18017 0.1146969,0.18844 0.3113522,0.29504 0.4833972,0.42612 0.1146976,0.0819 0.262165,0.10638 0.4096324,0.0736 0.024581,-0.008 0.057348,-0.0164 0.081926,-0.008 0.073733,0.0164 0.1309538,0.008 0.1964955,-0.0328 0.040965,-0.0246 0.1065681,-0.0327 0.147531,-0.0573 0.081926,-0.0491 0.1638848,-0.10647 0.2376188,-0.17201 0.2457791,-0.21301 0.4341779,-0.46708 0.499719,-0.79479 0.032773,-0.15566 0.073733,-0.31938 0.081926,-0.48323 0.00819,-0.13928 0.057348,-0.23765 0.1638527,-0.31139 0.057348,-0.0409 0.1146969,-0.0819 0.1638527,-0.13105 0.081926,-0.0819 0.081862,-0.18027 0.057286,-0.27858 -0.024581,-0.0901 -0.016322,-0.17211 0.065605,-0.22946 0.024581,-0.0163 0.049218,-0.0409 0.065605,-0.0736 0.040965,-0.0819 0.07367,-0.17215 0.098248,-0.26226 0.040965,-0.17205 0.057286,-0.34403 0.098247,-0.50788 0.040965,-0.17205 0.073862,-0.3359 0.13121,-0.49156 0.081926,-0.20482 0.1801744,-0.39334 0.2621007,-0.58997 0.1310822,-0.31951 0.2621322,-0.639 0.2949028,-0.99128 0.024575,-0.21301 0.1474353,-0.37689 0.2949028,-0.52436 0.204816,-0.20481 0.401471,-0.40134 0.606288,-0.59796 0.03277,-0.0328 0.05735,-0.0328 0.08193,0 0.04916,0.0573 0.09009,0.12279 0.13105,0.18833 0.12289,0.17205 0.08199,0.36057 0.0656,0.549 -0.01639,0.18024 -0.05738,0.36045 -0.07377,0.54069 -0.0082,0.12288 6.4e-5,0.25394 -0.01632,0.37683 -0.01639,0.15566 0.0081,0.2949 0.09825,0.41779 0.0082,0.0164 0.02464,0.0329 0.02464,0.0493 0.01638,0.0901 0.03277,0.18015 0.04096,0.27027 0.01639,0.0901 0.0082,0.17207 -0.07377,0.23761 -0.05735,0.0491 -0.10644,0.12292 -0.139211,0.19666 -0.06554,0.13928 -0.1066,0.29493 -0.13937,0.45059 -0.04916,0.2294 -0.01642,0.43415 0.09009,0.63077 0.04096,0.0819 0.09834,0.15572 0.155692,0.22946 0.163852,0.20482 0.352315,0.38509 0.64725,0.40147 0.180238,0.0164 0.33593,-0.0409 0.483398,-0.12289 0.180238,-0.0983 0.344026,-0.22946 0.507879,-0.35235 0.01639,-0.0164 0.03274,-0.0409 0.04912,-0.0573 0.09012,-0.13108 0.188494,-0.25408 0.270421,-0.38516 0.139274,-0.2212 0.237554,-0.4505 0.25394,-0.72085 0.0082,-0.15566 0.02458,-0.31145 0,-0.45892 -0.0082,-0.0491 0.0082,-0.0737 0.04912,-0.0982 0.04916,-0.0246 0.09844,-0.0491 0.131211,-0.0901 0.122889,-0.15566 0.253875,-0.30319 0.352187,-0.47524 0.15566,-0.27036 0.245811,-0.56523 0.278582,-0.87654 0.04096,-0.3359 0.10644,-0.68 0.09825,-1.02409 l -0.02448,-0.95863 c -0.0082,-0.15566 -0.03274,-0.31129 -0.0082,-0.45876 0.01638,-0.16385 0.08189,-0.31941 0.131049,-0.47507 0.02458,-0.0737 0.05735,-0.14757 0.08193,-0.2213 0.005,0.002 0.0069,0.002 0.0099,0.003 0.0063,0.0372 0.008,0.0745 0.02288,0.11169 0.04916,0.15566 0.09818,0.31958 0.155531,0.47523 0.04096,0.1147 0.09838,0.2293 0.147531,0.35219 0.01639,0.0491 0.02461,0.10654 0.0328,0.15569 0.0082,0.0819 0.0082,0.16389 0.04096,0.23763 0.03277,0.0737 0.0082,0.11472 -0.04096,0.15569 -0.04916,0.0409 -0.09841,0.0819 -0.139371,0.13105 -0.09012,0.1065 -0.04915,0.27032 0.08193,0.2949 0.08193,0.0164 0.155692,0.0163 0.237618,0.0163 0.05735,0 0.08202,0.0246 0.05745,0.0738 -0.01639,0.0328 -0.03287,0.0573 -0.05745,0.0819 -0.04916,0.0655 -0.09821,0.13114 -0.147371,0.18849 -0.04096,0.0491 -0.04928,0.11473 -0.0083,0.15569 0.03277,0.041 0.09022,0.0654 0.139371,0.0736 0.05735,0.008 0.122826,0 0.180174,0 0.05735,0 0.07383,0.0246 0.05744,0.0738 -0.03277,0.0655 -3.2e-5,0.0983 0.04912,0.11474 0.06554,0.0246 0.131116,0.0492 0.196657,0.0656 0.02458,0.008 0.05722,0.008 0.07361,0 0.05735,-0.0328 0.123018,-0.0656 0.172174,-0.10657 0.06554,-0.0655 0.131017,-0.13108 0.180173,-0.20481 0.05735,-0.0737 0.131018,-0.14744 0.139211,-0.25395 0.0082,-0.0164 0.01642,-0.0327 0.0328,-0.0491 0.06554,-0.0737 0.139307,-0.14754 0.196655,-0.22947 0.07373,-0.1065 0.155693,-0.22945 0.196656,-0.35234 0.03277,-0.10651 0.01629,-0.2375 0.02448,-0.35219 0.0082,-0.0573 0.0082,-0.12289 0.04096,-0.16385 0.09012,-0.1147 0.122985,-0.23756 0.09841,-0.37683 v -0.0246 c -0.0082,-0.1065 -0.0082,-0.21304 -0.0328,-0.31954 -0.03277,-0.13928 -0.06557,-0.27852 -0.0328,-0.41779 0.01639,-0.0737 0.02458,-0.14741 0.04096,-0.22114 0.04096,-0.13928 0.06554,-0.28687 0.12289,-0.41796 0.06554,-0.13927 0.08193,-0.28664 0.08193,-0.43411 0,-0.0901 -0.0081,-0.16392 0.06561,-0.22946 0.03277,-0.0328 0.06551,-0.0819 0.09009,-0.12289 0.07373,-0.12289 0.05738,-0.23752 -0.04913,-0.30306 -0.106504,-0.0737 -0.139307,-0.17205 -0.155692,-0.28674 -0.01639,-0.0983 -0.04096,-0.18841 -0.04096,-0.29491 -0.0082,-0.17204 -0.0327,-0.35228 -0.05729,-0.53252 -0.01639,-0.13927 -0.04103,-0.27039 -0.06561,-0.40147 -0.01639,-0.0983 -0.04916,-0.20491 -0.08193,-0.30322 -0.01638,-0.0819 -0.04103,-0.15553 -0.0656,-0.23746 -0.01638,-0.041 -0.01625,-0.0738 -0.03264,-0.10657 -0.06554,-0.1147 -0.11473,-0.24578 -0.23762,-0.32771 -0.02457,-0.0163 -0.04106,-0.0409 -0.05745,-0.0573 -0.02457,-0.0328 -0.0327,-0.0656 -0.01632,-0.10657 0.01638,-0.0246 0.0082,-0.0655 0,-0.0983 -0.0082,-0.0328 -0.01645,-0.0738 -0.02464,-0.10657 -0.0082,-0.0246 -0.0081,-0.0492 -0.01632,-0.0656 -0.02458,-0.0246 -0.01642,-0.0409 0.0082,-0.0654 0.114697,-0.10651 0.229362,-0.22117 0.335865,-0.33587 0.12289,-0.13928 0.245812,-0.27865 0.360509,-0.42611 0.03277,-0.041 0.05732,-0.0982 0.09009,-0.14738 0.09012,-0.12289 0.180333,-0.2459 0.26226,-0.37698 0.03277,-0.0573 0.06551,-0.10651 0.09009,-0.16386 0.05735,-0.11469 0.122955,-0.2293 0.147532,-0.35218 0.04096,-0.18025 0.06541,-0.3769 0.07361,-0.56533 0.0082,-0.13927 1.63e-4,-0.27855 -0.03264,-0.40963 -0.05735,-0.24578 -0.131179,-0.49156 -0.221297,-0.73734 -0.05735,-0.13927 -0.13105,-0.27042 -0.212977,-0.39331 -0.09831,-0.15566 -0.188463,-0.31119 -0.319545,-0.44228 -0.139275,-0.13927 -0.245779,-0.3196 -0.450595,-0.38514 -0.0082,0 -0.0081,-0.008 -0.01632,-0.008 -0.172045,-0.12289 -0.360507,-0.22124 -0.565323,-0.27859 -0.155661,-0.041 -0.319577,-0.0819 -0.475238,-0.0901 -0.180238,-0.008 -0.368572,0.0246 -0.557003,0.0328 -0.03277,0.008 -0.06564,-10e-5 -0.09841,-0.0165 -0.163853,-0.0737 -0.327674,-0.18012 -0.499719,-0.23746 -0.27855,-0.0901 -0.573421,-0.14747 -0.876549,-0.16386 -0.04301,-0.002 -0.08663,-0.004 -0.13041,-0.006 z m -0.0416,0.12417 c 0.172046,-0.006 0.343995,0.008 0.51604,0.0449 0.147467,0.0328 0.294967,0.0573 0.442434,0.0982 0.139275,0.041 0.278583,0.0901 0.401472,0.17202 0.0082,0.008 0.01642,0.0246 0.0328,0.041 -0.09012,0.0328 -0.180367,0.0575 -0.254101,0.0984 -0.172045,0.0819 -0.327673,0.17201 -0.499719,0.25394 -0.04096,0.0164 -0.09821,0.0327 -0.14737,0.0245 -0.114697,-0.0164 -0.229491,-0.0409 -0.344187,-0.0654 -0.04916,-0.008 -0.09822,-0.0328 -0.147372,-0.0409 -0.147467,-0.0164 -0.245875,0.0655 -0.344187,0.16384 -0.06554,0.0655 -0.139275,0.12283 -0.204816,0.18018 -0.122889,0.10651 -0.245811,0.19669 -0.360508,0.31139 -0.163853,0.16385 -0.319417,0.33583 -0.475077,0.50787 -0.08193,0.0901 -0.155692,0.18843 -0.237618,0.28675 -0.08193,0.0983 -0.163917,0.19668 -0.229458,0.31138 -0.05735,0.0901 -0.106408,0.18834 -0.06544,0.31122 -0.376862,0.0983 -0.688182,0.28681 -0.9831166,0.51621 l -0.016482,-0.0163 c 0.01639,-0.0819 0.032866,-0.17218 0.057447,-0.25411 0.040965,-0.14746 0.081862,-0.28674 0.1801736,-0.40962 0.01639,-0.0164 0.01635,-0.049 0.0082,-0.0736 -0.032773,-0.15566 -0.057318,-0.30326 -0.049126,-0.45892 0.00819,-0.17204 0.106536,-0.25384 0.237618,-0.31938 0.180238,-0.0819 0.368637,-0.16395 0.540682,-0.26227 0.188431,-0.0983 0.344155,-0.2539 0.475237,-0.42595 0.147468,-0.19662 0.303128,-0.38502 0.450595,-0.58164 0.09012,-0.12289 0.229426,-0.18036 0.360509,-0.2541 0.15566,-0.0737 0.311192,-0.13099 0.483237,-0.14737 0.05735,-0.006 0.114825,-0.0102 0.172173,-0.0122 z m -3.9708691,0.0314 c -0.057447,0.002 -0.1060879,0.0371 -0.1419308,0.10369 -0.049156,0.0901 -0.049058,0.18014 -0.024482,0.27025 0.024581,0.0819 0.081799,0.11471 0.1555326,0.1229 0.1146963,0.0164 0.2130406,-0.0328 0.2785811,-0.1229 0.024581,-0.0246 0.024674,-0.0819 0.016482,-0.12288 -0.016383,-0.0491 -0.049187,-0.0982 -0.073766,-0.14737 l -0.098407,-0.0738 c -0.03994,-0.0215 -0.077542,-0.0315 -0.1120092,-0.0299 z m 0.016001,0.16785 c 0.043397,-6.2e-4 0.1062484,0.0239 0.1369707,0.0669 0.032773,0.0328 0.016451,0.0737 -0.016322,0.0901 -0.057348,0.0163 -0.1228577,0.0328 -0.1720136,0.0165 -0.040965,-0.008 -0.024643,-0.13109 0.016322,-0.16386 0.00819,-0.006 0.020581,-0.009 0.035045,-0.01 z m 5.9923061,0.19378 c 0.02599,6.2e-4 0.05159,0.002 0.07617,0.004 0.147467,0.008 0.311288,0.0165 0.458756,0.0575 0.172045,0.0491 0.336026,0.13109 0.499879,0.20482 0.04916,0.0164 0.10644,0.0327 0.13921,0.0736 0.180238,0.19662 0.417761,0.33589 0.548843,0.57348 0.09012,0.15566 0.196752,0.31142 0.295063,0.46707 0.03277,0.0491 0.04906,0.10655 0.06545,0.1557 0.06554,0.21301 0.139307,0.42589 0.196656,0.64709 0.03277,0.13108 0.04099,0.27039 0.0328,0.40147 -0.0082,0.19662 -0.03283,0.39334 -0.06561,0.58996 -0.01639,0.1229 -0.08193,0.23746 -0.163853,0.36035 -0.01638,-0.0573 -0.03277,-0.0901 -0.04096,-0.13105 -0.06554,-0.31132 -0.237522,-0.56529 -0.466916,-0.7783 -0.114697,-0.1065 -0.221297,-0.22123 -0.344187,-0.31954 -0.139275,-0.1065 -0.294806,-0.20476 -0.442274,-0.30307 -0.204816,-0.12289 -0.426146,-0.20488 -0.663732,-0.22945 -0.180238,-0.0164 -0.352284,-0.0163 -0.532522,-0.0245 -0.04916,-0.008 -0.09821,0.008 -0.147371,0.0163 -0.07373,0 -0.147564,0.008 -0.221297,0.008 -0.09012,0 -0.106473,0.0164 -0.131051,0.10656 -0.0082,0.041 -0.04087,0.082 -0.06544,0.11474 -0.139275,0.19661 -0.262261,0.40136 -0.344188,0.63076 -0.06554,0.19662 -0.15566,0.39328 -0.163852,0.60629 -0.0082,0.12289 -0.01629,0.23762 -0.02448,0.36051 -0.01639,0.22939 -0.02464,0.45881 -0.02464,0.68821 0,0.0573 0.01645,0.12283 0.02464,0.18018 0,0.0164 0.0081,0.0409 0.02448,0.0491 0.196623,0.18844 0.3687,0.40142 0.606287,0.54069 0.163853,0.0983 0.344156,0.18849 0.516201,0.27042 0.106504,0.0491 0.221169,0.0819 0.335866,0.12289 0.03277,0.0164 0.07373,0.0164 0.12289,0.0246 -0.03277,0.0328 -0.04919,0.0654 -0.07377,0.0654 -0.196623,0.16386 -0.401503,0.32771 -0.598127,0.49156 l -0.368668,0.2949 c -0.0082,0.008 -0.02445,0.0164 -0.03264,0.0246 -0.05735,0.0901 -0.131179,0.0656 -0.221298,0.0328 -0.131082,-0.0491 -0.270357,-0.0902 -0.409632,-0.13937 -0.08193,-0.0246 -0.155692,-0.0573 -0.237618,-0.0901 -0.02458,-0.008 -0.04093,-0.0327 -0.04912,-0.0573 -0.03277,-0.0573 -0.06548,-0.12298 -0.09825,-0.18033 l -0.0082,-0.008 c -0.04916,-0.12289 -0.106568,-0.23762 -0.147531,-0.36051 -0.07373,-0.18843 -0.139275,-0.38505 -0.204816,-0.57349 -0.02458,-0.0573 -0.041,-0.13099 -0.07377,-0.18833 -0.01639,-0.0246 -0.04916,-0.041 -0.08193,-0.0656 -0.0082,-0.008 -0.0328,-0.0163 -0.0328,-0.0245 -0.04096,-0.1147 -0.0818,-0.22949 -0.114569,-0.34419 0,-0.008 -3.2e-5,-0.0164 0.0082,-0.0328 l 0.106409,0.10657 c 0.106504,0.0901 0.21304,0.18846 0.319545,0.27858 0.131082,0.0983 0.253971,0.19659 0.409631,0.25394 0.03277,0.0164 0.07377,0.0163 0.114729,0.0163 0.01639,0 0.04912,-0.0162 0.04912,-0.0327 0.0082,-0.0246 6.5e-5,-0.0573 -0.01632,-0.0738 -0.02458,-0.0246 -0.06564,-0.041 -0.09841,-0.0656 l -0.41779,-0.29497 c -0.04916,-0.0328 -0.106536,-0.0573 -0.155692,-0.0983 -0.05735,-0.0491 -0.122889,-0.0983 -0.163852,-0.16385 -0.06554,-0.0983 -0.130955,-0.21304 -0.196496,-0.31954 -0.08193,-0.13927 -0.163885,-0.28681 -0.237618,-0.43427 -0.02458,-0.0491 -0.02458,-0.10655 -0.04096,-0.1557 -0.01639,-0.0655 -0.04103,-0.13927 -0.06561,-0.20481 -0.06554,-0.18024 -0.130986,-0.36042 -0.188334,-0.54885 -0.01639,-0.0491 -0.0083,-0.1065 -0.0083,-0.16385 0,-0.0655 -0.0081,-0.13928 -0.01632,-0.20481 -0.0082,-0.0656 -0.03271,-0.13931 -0.01632,-0.19667 0.01639,-0.0655 0.05725,-0.12285 0.106408,-0.172 0.09012,-0.0901 0.188399,-0.18837 0.294903,-0.26211 0.114697,-0.0737 0.237587,-0.11475 0.368669,-0.10656 0.01639,0.041 0.0329,0.0738 0.04928,0.10656 h 0.02448 c 0.04096,-0.0655 0.08193,-0.13927 0.12289,-0.20481 0.01639,-0.0164 0.04919,-0.0409 0.07377,-0.0409 0.06554,-0.008 0.09018,-0.0328 0.0656,-0.0984 0,-0.0246 -6.4e-5,-0.0491 0.01632,-0.0654 0.18843,-0.20481 0.385086,-0.39331 0.606287,-0.55716 0.237587,-0.18024 0.483301,-0.31958 0.753658,-0.43427 0.09831,-0.041 0.204881,-0.0901 0.311385,-0.0901 0.09012,0 0.163853,-0.0245 0.245779,-0.0573 0.06759,-0.0246 0.148939,-0.0307 0.226898,-0.0288 z m -2.038079,0.40467 c 0.02304,0 0.04762,0.003 0.07425,0.009 0.09012,0.0246 0.172142,0.0246 0.262261,0.041 0.02458,0 0.041,0.008 0.07377,0.0246 -0.131082,0.11469 -0.262229,0.21304 -0.393311,0.31954 -0.04096,0.0328 -0.06548,0.0736 -0.09825,0.10641 -0.06554,0.0737 -0.139275,0.14756 -0.204816,0.2213 -0.04096,0.0491 -0.08199,0.09 -0.106568,0.14737 -0.02458,0.0573 -0.0656,0.0574 -0.106569,0.0656 -0.122889,0.0328 -0.253971,0.0491 -0.368668,0.0983 -0.08193,0.0328 -0.147404,0.10647 -0.221137,0.17202 -0.09831,0.0819 -0.188495,0.15578 -0.270422,0.2541 -0.04096,0.0573 -0.08189,0.12285 -0.04912,0.21297 0.01639,0.0491 3.2e-5,0.12282 -0.0082,0.18017 0,0.0164 -0.04916,0.0328 -0.08193,0.0328 -0.06554,0.008 -0.139243,0.008 -0.212976,0 -0.01638,0 -0.04096,-0.0328 -0.04096,-0.041 0.02457,-0.0655 0.041,-0.13927 0.07377,-0.20481 0.09831,-0.18843 0.245715,-0.32774 0.38499,-0.4834 0.188431,-0.20481 0.368701,-0.40963 0.565324,-0.61444 0.08193,-0.0819 0.171981,-0.14741 0.2621,-0.22114 0.09831,-0.0737 0.196624,-0.1475 0.286743,-0.23762 0.0553,-0.0553 0.110568,-0.0829 0.179694,-0.0829 z m -7.2744856,0.36147 c -0.00819,-0.008 -0.049218,0.0327 -0.065605,0.0573 -0.057348,0.0655 -0.098184,0.14744 -0.155532,0.21298 -0.024581,0.0328 -0.081958,0.0491 -0.114729,0.041 -0.065541,-0.0163 -0.1229534,-0.049 -0.1884945,-0.0736 -0.065541,-0.0328 -0.1146327,-0.008 -0.1392109,0.0573 -0.032773,0.0819 -0.024544,0.17207 0.032804,0.23762 0.081926,0.0901 0.065541,0.17198 0,0.2621 -0.00819,0.008 -0.016482,0.0164 -0.016482,0.0246 -0.032773,0.0983 -0.081831,0.19659 -0.1064089,0.2949 -0.024575,0.0737 0.016352,0.11473 0.090088,0.11473 0.057348,0 0.1146648,-0.0164 0.1720129,-0.008 0.049156,0 0.1065688,0.008 0.1475317,0.041 0.081926,0.0655 0.1555319,0.14741 0.2374583,0.22114 0.00819,0.0328 0.024643,0.0574 0.065605,0.0819 0.024575,0.008 0.073701,0.0327 0.090087,0.0163 0.024575,-0.0163 0.049125,-0.0655 0.049125,-0.0983 0,-0.1065 -0.016291,-0.21304 -0.024483,-0.31954 0,-0.0573 0.024581,-0.09 0.081926,-0.10641 0.073734,-0.0164 0.139243,-0.041 0.2129764,-0.0656 0.073734,-0.0246 0.1475001,-0.0492 0.196656,-0.11473 0.032773,-0.041 0.040996,-0.082 -0.00816,-0.11473 -0.073733,-0.0491 -0.1475637,-0.0983 -0.2212971,-0.13921 -0.081926,-0.0491 -0.1474675,-0.10647 -0.1638527,-0.21298 -0.024581,-0.11469 -0.057317,-0.22117 -0.090087,-0.33586 -0.00819,-0.0328 -0.049156,-0.0656 -0.081926,-0.0738 z m 0,0.21298 c 0.016383,0.1065 0.040934,0.19655 0.049125,0.30306 0,0.0901 0.024643,0.14753 0.1065682,0.18849 0.065541,0.0328 0.1310821,0.0737 0.2048162,0.12289 -0.032773,0.0164 -0.049187,0.0328 -0.073765,0.041 l -0.1966554,0.0491 c -0.1065046,0.0246 -0.1393072,0.0655 -0.1556925,0.17201 v 0.11473 0.13105 c -0.081926,-0.0901 -0.1473711,-0.16376 -0.2292975,-0.2293 -0.090119,-0.0737 -0.1966874,-0.0328 -0.3113843,-0.041 0.032773,-0.0737 0.065637,-0.14743 0.098408,-0.21297 0.016383,-0.0328 0.040897,-0.0575 0.057286,-0.0902 0.049156,-0.0737 0.057286,-0.1556 -0.024643,-0.22114 -0.016383,-0.0164 -0.032773,-0.0411 -0.040965,-0.0656 -0.00819,-0.0164 -0.00816,-0.0409 -0.00816,-0.0573 0.01639,0.008 0.041057,-3e-5 0.057447,0.008 0.040965,0.0164 0.081894,0.0409 0.1310501,0.0491 0.073734,0.0246 0.1556925,-0.0164 0.1966553,-0.0819 0.032773,-0.0491 0.057317,-0.0983 0.090087,-0.13921 0.00819,-0.008 0.024544,-0.0164 0.049126,-0.0409 z m 14.2319876,0.59796 c -0.01483,-10e-4 -0.03213,0.004 -0.05056,0.0165 -0.06554,0.0409 -0.131115,0.0901 -0.196655,0.13921 -0.04096,0.0246 -0.08189,0.0492 -0.131051,0.0328 -0.07373,-0.0246 -0.155564,-0.0491 -0.229297,-0.0819 -0.07373,-0.0328 -0.155789,-0.0163 -0.172174,0.0656 -0.02457,0.10651 -0.04096,0.21295 0.04096,0.30307 0.03277,0.0409 0.04109,0.082 0.0083,0.13937 -0.06554,0.12289 -0.122987,0.2539 -0.09841,0.42595 0.04096,0 0.08199,-6e-5 0.106569,0.0163 0.05735,-0.0163 0.114664,-0.0409 0.172013,-0.0491 0.02457,0 0.04922,0.008 0.06561,0.0246 0.09012,0.0901 0.172013,0.18843 0.25394,0.28674 0.04916,0.0491 0.122825,0.0327 0.13921,-0.0328 0.02458,-0.0983 0.04103,-0.19659 0.06561,-0.2949 0.02457,-0.1147 -0.0083,-0.12293 0.13921,-0.15569 0.08193,-0.0164 0.155724,-0.0411 0.229458,-0.0656 0.07373,-0.0328 0.08186,-0.0982 0.01632,-0.14737 -0.06554,-0.0491 -0.122793,-0.0984 -0.188335,-0.14753 -0.07373,-0.0573 -0.106536,-0.13918 -0.114729,-0.2293 0,-0.0655 3.3e-5,-0.12295 -0.0082,-0.18849 -0.0051,-0.0359 -0.02312,-0.0556 -0.04784,-0.0575 z m -0.07504,0.19666 c 0.02457,0.0983 0.02448,0.18852 0.06545,0.26225 0.04096,0.0737 0.114793,0.13112 0.180334,0.19666 -0.06554,0.0246 -0.131114,0.0409 -0.196655,0.0573 -0.131082,0.041 -0.147468,0.0737 -0.12289,0.20481 0.0082,0.0491 -8.2e-5,0.10654 -0.01648,0.1557 -0.01638,0.0409 -0.04906,0.0246 -0.06544,0 -0.04916,-0.0737 -0.106569,-0.13925 -0.147532,-0.21298 -0.03277,-0.0573 -0.0737,-0.0738 -0.131051,-0.0575 -0.04916,0.008 -0.106471,0.0246 -0.172013,0.041 0.03277,-0.0655 0.04919,-0.12286 0.07377,-0.17202 0.01638,-0.0491 0.03274,-0.0901 0.04913,-0.13105 0.01638,-0.0491 -3.3e-5,-0.0984 -0.0328,-0.13937 -0.04096,-0.041 -0.09837,-0.0819 -0.0656,-0.16385 0.09012,0.0328 0.172174,0.0657 0.254101,0.0903 0.04096,0.008 0.09012,0.008 0.122889,-0.008 0.07373,-0.0328 0.139275,-0.0819 0.204816,-0.12289 z m -5.034473,0.10928 c 0.04506,-1.3e-4 0.09015,10e-4 0.135211,0.006 0.196623,0.0164 0.385086,0.0656 0.565324,0.15569 0.426017,0.20482 0.770044,0.49982 1.081364,0.84391 0.139275,0.14747 0.229394,0.3359 0.286742,0.53252 l 0.07377,0.22114 c 0.01639,0.0655 -0.0082,0.1147 -0.04913,0.16385 -0.05735,0.0573 -0.09841,0.13924 -0.139372,0.21298 -0.09012,0.17205 -0.212945,0.31948 -0.344027,0.45876 -0.114697,0.11469 -0.221137,0.23764 -0.344026,0.35234 -0.15566,0.15566 -0.319578,0.30313 -0.516201,0.40963 -0.03277,0.0164 -0.06548,0.0328 -0.09825,0.041 -0.172045,0.0328 -0.352315,0.0656 -0.524361,-0.008 -0.15566,-0.0655 -0.303095,-0.14747 -0.458755,-0.20481 -0.188431,-0.0737 -0.335931,-0.18034 -0.483398,-0.30323 -0.106504,-0.0901 -0.213073,-0.1884 -0.311385,-0.2949 -0.03277,-0.0328 -0.04909,-0.0982 -0.05728,-0.14737 -0.04096,-0.25398 -3.3e-5,-0.50801 0.0082,-0.76198 0.0082,-0.26217 0.04093,-0.52433 0.13105,-0.77831 0.09012,-0.24577 0.204783,-0.47513 0.335865,-0.70453 0.07373,-0.12289 0.16395,-0.17201 0.303225,-0.17201 0.135178,-0.006 0.270293,-0.0215 0.405471,-0.0219 z m -3.428587,0.53797 c 0.02458,0 0.06557,0.0163 0.07377,0.041 0.09012,0.15566 0.188399,0.31138 0.25394,0.47523 0.04916,0.13108 0.139275,0.25401 0.12289,0.40147 0,0.008 0.0082,0.0163 0.0082,0.0245 0.09012,0.18843 0.188462,0.37689 0.278581,0.56532 0.03277,0.0655 0.03274,0.13928 0.04912,0.20482 0.01639,0.0737 0.03274,0.15572 0.04912,0.22946 0.0082,0.0246 0.0083,0.0573 0.01648,0.0819 -0.0082,0 -0.0083,0.008 -0.01648,0.008 -0.01639,-0.0246 -0.03271,-0.0492 -0.05729,-0.0738 -0.106504,-0.0983 -0.213041,-0.18843 -0.319545,-0.28675 -0.02458,-0.0246 -0.04093,-0.0164 -0.04912,0.0163 -0.02458,0.0983 0.04093,0.15579 0.09009,0.21313 0.131083,0.14747 0.278518,0.29484 0.417793,0.43412 0.07373,0.0655 0.106632,0.16382 0.13121,0.25394 0.01639,0.0573 0.03274,0.0983 0.09009,0.12289 0.02458,0.008 0.04906,0.0491 0.06545,0.0819 0.04916,0.11469 0.09021,0.23765 0.13937,0.35234 0.05735,0.15566 0.122826,0.31955 0.180174,0.4834 v 0.0245 c -0.122889,-0.0328 -0.229426,-0.0901 -0.360508,-0.0819 -0.139275,-0.008 -0.171949,-0.09 -0.188335,-0.19649 -0.02458,-0.1147 -0.0328,-0.23765 -0.07376,-0.35235 -0.06554,-0.18843 -0.147404,-0.36861 -0.221138,-0.54884 -0.05735,-0.13928 -0.114824,-0.27039 -0.172173,-0.40147 -0.08193,-0.18024 -0.180174,-0.36057 -0.2621,-0.54901 -0.09012,-0.19662 -0.180303,-0.40134 -0.270421,-0.59796 -0.106505,-0.23759 -0.213009,-0.46698 -0.327706,-0.69638 -0.02458,-0.041 -0.04903,-0.0738 -0.07361,-0.11473 -0.02457,-0.0328 -0.01648,-0.0491 0.02448,-0.0573 0.131082,-0.0164 0.270389,-0.041 0.401471,-0.0575 z m -0.598446,0.13745 c 0.01882,0.002 0.04346,0.0141 0.0496,0.0264 0.04916,0.0901 0.09825,0.18846 0.139212,0.27858 0.01638,0.0246 0.02458,0.0573 0.04096,0.0901 0.04916,0.11469 0.106504,0.23765 0.163852,0.35234 0.09012,0.20482 0.180271,0.40963 0.278582,0.61445 0.09831,0.19663 0.204784,0.40147 0.294903,0.60629 0.106504,0.23759 0.196559,0.48327 0.303063,0.72086 0.07373,0.18842 0.122922,0.37686 0.155692,0.57348 0.01639,0.1065 0.05732,0.21304 0.09009,0.31954 0,0.008 1.31e-4,0.0246 0.0083,0.0246 0.114697,0.0737 0.122793,0.21289 0.188335,0.31939 0.0082,0.008 3.1e-5,0.0246 -0.0082,0.0409 -0.03277,0.0819 -0.01645,0.11479 0.05728,0.13937 0.06554,0.0164 0.03284,0.0573 0.02464,0.0901 -0.01639,0.0655 -0.04919,0.13112 -0.07376,0.19665 -0.114697,0.32771 -0.22117,0.66354 -0.335866,0.99944 -0.01639,0.0655 -0.04103,0.13928 -0.06561,0.20482 -0.02458,0.0655 -0.03267,0.13108 -0.02448,0.20481 0,0.0164 -0.01639,0.0492 -0.04096,0.0656 -0.01639,0.008 -0.05741,-0.008 -0.06561,-0.0246 -0.04915,-0.0737 -0.09005,-0.15557 -0.13921,-0.2293 -0.02458,-0.0328 -0.04916,-0.0738 -0.08193,-0.10657 -0.01639,-0.0246 -0.05738,-0.041 -0.07376,-0.0328 -0.01639,0.0164 -0.02461,0.0573 -0.0328,0.0819 -0.0082,0.0164 -0.0082,0.0328 -0.0082,0.0575 -0.09012,-0.008 -0.188367,-0.0164 -0.2621,-0.0328 -0.09012,0.008 -0.188431,0.0163 -0.286743,0.0245 h -0.114729 -0.37683 c -0.05735,0 -0.114824,-0.008 -0.172173,-0.0245 -0.0082,-0.008 -0.02448,-0.0327 -0.02448,-0.0491 -0.02457,-0.1147 -0.04916,-0.2294 -0.08193,-0.36867 0.03277,0 0.07377,-3e-5 0.114729,0.008 0.172045,0.0246 0.343994,0.0573 0.51604,0.0654 0.221201,0.008 0.44237,-0.008 0.663572,-0.0163 0.03277,0 0.05738,0 0.07376,0.0409 0.02458,0.0819 0.05732,0.0901 0.131051,0.0738 0.03277,-0.13927 0.05744,-0.28671 0.09841,-0.41779 0.05735,-0.18024 0.122922,-0.36047 0.196656,-0.53252 0.06554,-0.17205 0.130954,-0.34412 0.155532,-0.52436 0.0082,-0.0573 -0.01629,-0.0819 -0.06545,-0.0819 -0.04096,0 -0.09009,-6e-5 -0.09009,0.0573 0.0082,0.14747 -0.04922,0.27855 -0.106569,0.40963 -0.04096,0.0901 -0.09009,0.1803 -0.13105,0.27041 -0.02458,0.0491 -0.03274,0.10655 -0.04912,0.1557 -0.03277,0.1065 -0.06564,0.2212 -0.09841,0.32771 -0.02458,0.0655 -0.09005,0.0654 -0.139211,0.0736 -0.147467,0.0164 -0.286806,0.0246 -0.434274,0.0246 -0.139275,0 -0.27855,7e-5 -0.409631,-0.0163 -0.131083,-0.0164 -0.25394,-0.041 -0.37683,-0.0656 -0.04096,-0.008 -0.09005,-0.008 -0.1392107,-0.008 -0.040965,-0.0574 -0.082022,-0.13112 -0.1393708,-0.19666 -0.049156,-0.0491 -0.1064725,-0.0982 -0.1720129,-0.13921 -0.1146975,-0.0737 -0.2211379,-0.14759 -0.3440271,-0.21314 -0.081926,-0.0409 -0.1721414,-0.0737 -0.2622607,-0.0819 -0.1228892,-0.0164 -0.2376182,-0.0164 -0.360508,-0.008 -0.073733,0.008 -0.1474033,0.0328 -0.2211373,0.0575 -0.1065039,0.041 -0.1311464,0.11461 -0.1065681,0.2293 0.00819,-0.008 0.016451,-0.008 0.024643,-0.0163 0.065541,-0.11469 0.180238,-0.13117 0.2867425,-0.13937 0.1638527,-0.008 0.3277055,-0.0164 0.4915582,0.041 0.057348,0.0246 0.1146969,0.0491 0.1638527,0.0819 0.065541,0.0328 0.1228256,0.0656 0.1801744,0.10656 0.1802379,0.10651 0.3195766,0.23756 0.3523472,0.45876 0.016383,0.13108 0.081894,0.24578 0.090087,0.36867 0.00819,0.0983 -0.024575,0.20488 -0.040965,0.31138 -0.00819,0.041 -0.040866,0.0491 -0.065445,0.008 -0.032773,-0.0737 -0.065637,-0.15569 -0.098408,-0.23762 -0.040965,-0.10651 -0.073765,-0.2212 -0.114729,-0.3277 -0.024581,-0.0573 -0.073606,-0.041 -0.1145684,-0.0328 -0.049157,0.008 -0.049157,0.0409 -0.040965,0.0819 l 0.1228899,0.46707 c 0.00819,0.0328 0.024581,0.0655 0.040965,0.0901 0.081926,0.1065 0.1064083,0.24578 0.1473717,0.36866 0.032773,0.11471 -0.040934,0.21305 -0.090087,0.31955 -0.040965,-0.13108 -0.1064403,-0.23756 -0.1801737,-0.33586 -0.00819,0 -0.016451,0.008 -0.024643,0.008 0.00819,0.0901 0.024575,0.17197 0.040965,0.26209 -0.00819,0 -0.016445,0.008 -0.024643,0.008 -0.024581,-0.0328 -0.049058,-0.0736 -0.065445,-0.11456 -0.081926,-0.18844 -0.1720129,-0.38506 -0.2539393,-0.57349 -0.024581,-0.0409 -0.049286,-0.0574 -0.090248,-0.0328 -0.040965,0.0246 -0.073701,0.0409 -0.049125,0.0983 0.049156,0.0901 0.090087,0.1803 0.1310507,0.27042 0.06554,0.13109 0.1229855,0.27039 0.1803336,0.40147 0.00819,0.0246 0.024575,0.0491 0.040965,0.0654 0.049156,0.0409 0.016291,0.0574 -0.016482,0.0738 -0.049157,0.0164 -0.1146334,-0.0164 -0.1392109,-0.0656 -0.024575,-0.0491 -0.049157,-0.10641 -0.081926,-0.14738 -0.1392751,-0.18023 -0.253972,-0.37688 -0.327706,-0.60628 -0.024575,0 -0.057348,0.008 -0.081926,0.0163 -0.049156,0.0246 -0.065573,0.0492 -0.032804,0.10657 0.049156,0.0819 0.081895,0.18017 0.1310507,0.2621 0.049156,0.0819 0.082023,0.17217 0.1803343,0.21314 0.016383,0 0.024482,0.0327 0.024482,0.0491 -0.00819,0.0737 -0.00813,0.14738 -0.016322,0.2293 -0.032773,-0.008 -0.065478,-0.0164 -0.098247,-0.0409 -0.1966239,-0.15567 -0.3686695,-0.32765 -0.4915587,-0.54885 -0.1310822,-0.23759 -0.2622928,-0.46691 -0.3769891,-0.7127 -0.1392751,-0.30312 -0.1719178,-0.62276 -0.1145691,-0.95047 0.00819,-0.0491 0.032705,-0.0901 0.057286,-0.13921 0.032767,-0.0901 0.040996,-0.17201 -0.00816,-0.25394 -0.040965,-0.0737 -0.090151,-0.13937 -0.1147284,-0.2213 -0.057348,-0.18843 -0.00825,-0.34402 0.1392103,-0.46692 0.01639,-0.0164 0.032896,-0.0246 0.049286,-0.0409 0.090119,-0.0901 0.1883025,-0.13115 0.3193847,-0.10657 0.040965,0.008 0.073862,0.0164 0.090247,-0.041 -0.024581,-0.008 -0.041057,-0.0245 -0.057447,-0.0245 -0.098312,-0.008 -0.1474353,-0.0737 -0.1720135,-0.16385 -0.024581,-0.0655 -0.05741,-0.13108 -0.065605,-0.20482 -0.032773,-0.24577 0.098408,-0.40972 0.344187,-0.46707 0.01639,-0.008 0.040897,-0.008 0.057286,-0.008 0.073733,-0.008 0.1393387,-0.0246 0.1475316,-0.12289 0.057348,0.0246 0.1065361,0.0492 0.1556919,0.0656 0.01639,0.008 0.040897,0 0.057286,0 -0.00819,-0.0164 -0.00813,-0.0409 -0.016322,-0.0491 -0.049156,-0.041 -0.098344,-0.082 -0.1556924,-0.11473 -0.040965,-0.0246 -0.065637,-0.041 -0.057447,-0.0984 0.024575,-0.20482 0.1392752,-0.36048 0.2867426,-0.49156 0.090119,-0.0737 0.2048798,-0.0655 0.3113843,-0.0491 0.098312,0.0163 0.1311143,-0.0246 0.1147284,-0.12289 -0.024581,-0.15566 -0.024544,-0.31126 0.032804,-0.46692 0.090119,-0.22939 0.2374904,-0.41785 0.4341137,-0.56532 0.1556597,-0.1147 0.3195447,-0.2212 0.4833977,-0.32771 0.04096,-0.0246 0.08193,-0.0491 0.122889,-0.0573 0.0041,-0.002 0.0097,-0.002 0.016,-0.002 z m 5.636919,0.48836 c -0.02662,-0.003 -0.05332,6.1e-4 -0.06561,0.0133 -0.04916,0.0491 -0.0081,0.0736 0.01648,0.10641 0.06554,0.0901 0.131018,0.17211 0.180174,0.27042 0.09831,0.18024 0.04919,0.28674 -0.04913,0.40963 -0.114696,0.14747 -0.23765,0.29497 -0.352347,0.44244 -0.04096,0.0574 -0.0736,0.12279 -0.114569,0.18833 l 0.02448,0.0246 c 0.02458,-0.0164 0.06551,-0.0246 0.09009,-0.0491 0.02458,-0.0164 0.04103,-0.0411 0.0656,-0.0656 0.07373,-0.0901 0.155725,-0.17198 0.229459,-0.2621 0.06554,-0.0737 0.122793,-0.15572 0.188334,-0.22945 0.08193,-0.0901 0.172013,-0.29484 0.09009,-0.43412 -0.02458,-0.0328 -0.04087,-0.0738 -0.06545,-0.11473 l -0.172013,-0.27042 c -0.01229,-0.0164 -0.03898,-0.0266 -0.06561,-0.0296 z m -2.452672,0.12897 c -0.01946,0.003 -0.03786,0.0153 -0.05424,0.0317 -0.03277,0.0328 -0.03277,0.0575 0,0.0902 0.04096,0.0491 0.09009,0.0901 0.131049,0.13921 0.07373,0.0819 0.155725,0.16386 0.229459,0.24578 0.04096,0.0491 0.08999,0.0491 0.155531,0.008 -0.0082,-0.0246 -0.01629,-0.0409 -0.02448,-0.0573 -0.122889,-0.14747 -0.245747,-0.295 -0.376829,-0.43428 -0.02048,-0.0204 -0.04103,-0.0266 -0.06049,-0.0235 z m -0.02624,0.41362 c -0.02804,-3e-4 -0.05255,0.007 -0.07713,0.0195 -0.0082,0.008 -0.0082,0.0574 0.0082,0.0819 0.04096,0.0655 0.09012,0.12286 0.12289,0.17202 0.106504,0.1065 0.196591,0.20485 0.294903,0.31954 0.01639,0.0164 0.03271,0.041 0.05728,0.0575 0.04916,0.041 0.122954,0.0491 0.147532,0.0163 0.03277,-0.0574 -0.0082,-0.0983 -0.04096,-0.13105 -0.147468,-0.16386 -0.286807,-0.31955 -0.434275,-0.4834 -0.01639,-0.0164 -0.03274,-0.0491 -0.04912,-0.0491 -0.01024,-0.002 -0.01994,-0.003 -0.02928,-0.003 z m -1.560122,0.0605 c -0.09831,0.0164 -0.114665,0.0738 -0.04912,0.14753 0.08193,0.0983 0.163884,0.18843 0.237618,0.28674 0.09012,0.12289 0.180174,0.23756 0.303064,0.33587 0.03277,0.0246 0.0738,0.0491 0.106568,0.0819 0.06554,0.0491 0.122954,0.10653 0.188495,0.15569 0.04096,0.0328 0.09005,0.0655 0.13921,0.0901 0.04916,0.0246 0.09838,0.0492 0.147532,0.0656 0.01639,0.008 0.06544,-0.008 0.06544,-0.0246 0.0082,-0.0328 6.5e-5,-0.0737 -0.01632,-0.0982 -0.01639,-0.0246 -0.05732,-0.0411 -0.09009,-0.0656 -0.15566,-0.12289 -0.335963,-0.22939 -0.475238,-0.36867 -0.172045,-0.16385 -0.311384,-0.36051 -0.475237,-0.56532 -0.01639,-0.008 -0.05735,-0.0328 -0.08193,-0.0409 z m 1.519798,0.31346 c -0.02458,0 -0.04916,0.0102 -0.06144,0.0307 -0.02458,0.0328 -0.05741,0.0818 0.01632,0.1064 0.0082,0.008 0.01645,0.0246 0.02464,0.0328 0.139274,0.13927 0.270357,0.28668 0.409631,0.42595 0.04096,0.0491 0.09835,0.0738 0.155693,0.0984 0.01639,0.008 0.04919,-0.0164 0.07377,-0.0246 -0.0082,-0.0246 -0.01642,-0.0655 -0.0328,-0.0819 -0.139275,-0.13927 -0.278518,-0.27035 -0.417793,-0.40963 l 0.0082,-0.008 c -0.04096,-0.0491 -0.07377,-0.0983 -0.114729,-0.13921 -0.01229,-0.0205 -0.03687,-0.0307 -0.06145,-0.0307 z m 8.96742,0.37299 c -0.01178,-6.2e-4 -0.02304,-3.1e-4 -0.03329,0.002 -0.04916,0.008 -0.08193,0.0492 -0.08193,0.10657 0,0.0573 -3.2e-5,0.11466 0.0082,0.17201 0,0.0491 -0.01635,0.0818 -0.04913,0.10641 -0.08193,0.0574 -0.155724,0.12295 -0.229457,0.1885 -0.05735,0.0491 -0.0491,0.10657 0.02464,0.14753 0.04916,0.0246 0.114665,0.0491 0.172013,0.0654 0.07373,0.0246 0.139307,0.0493 0.155692,0.13937 0.01639,0.0901 0.04916,0.16386 0.08193,0.24578 0.01639,0.0246 0.04903,0.0572 0.0736,0.0654 0.02458,0.008 0.06554,-0.0164 0.08193,-0.041 0.07373,-0.0901 0.131114,-0.18014 0.196655,-0.27026 0.01638,-0.0164 0.04103,-0.0328 0.06561,-0.0328 0.07373,0 0.139243,0.008 0.212977,0.0245 0.04096,0.008 0.08199,0.0328 0.106568,-0.0163 0.0082,-0.0328 0.0081,-0.082 -0.0083,-0.11474 -0.02458,-0.0655 -0.05732,-0.13111 -0.09009,-0.19665 -0.02458,-0.0573 -0.02448,-0.12286 0.01648,-0.17202 0.09012,-0.11469 0.08183,-0.23751 0.06545,-0.38498 -0.05735,-0.008 -0.122889,-0.0247 -0.163852,-0.0165 -0.09831,0.0328 -0.188464,0.0738 -0.278582,0.11473 -0.04916,0.0246 -0.09009,0.0164 -0.131051,-0.0163 -0.03277,-0.0246 -0.05732,-0.0655 -0.09009,-0.0819 -0.03072,-0.0185 -0.0706,-0.0323 -0.105929,-0.0346 z m 0.633009,0.1805 c 0.02343,-0.002 0.03405,0.02 0.02176,0.0507 -0.01638,0.0573 -0.04903,0.12282 -0.07361,0.18017 -0.01639,0.041 -0.04096,0.0901 -0.04096,0.13105 0,0.041 0.01625,0.0738 0.03264,0.11473 l 0.04929,0.0983 c 0,0 -0.0083,0.008 -0.0083,0.0165 -0.04096,-0.008 -0.08193,-0.0164 -0.122889,-0.008 -0.114697,-0.0246 -0.139147,-0.0164 -0.196495,0.0901 -0.03277,0.0491 -0.0738,0.10654 -0.106569,0.1557 -0.0082,-0.008 -0.01644,-0.008 -0.02464,-0.008 -0.01639,-0.0491 -0.04093,-0.0982 -0.04913,-0.14737 -0.02457,-0.1147 -0.04919,-0.13111 -0.155692,-0.15569 -0.05735,-0.008 -0.106471,-0.041 -0.172013,-0.0656 0.06554,-0.041 0.114665,-0.0818 0.172013,-0.11458 0.08193,-0.041 0.114825,-0.0984 0.09025,-0.18848 -0.0082,-0.0328 -0.0083,-0.0655 -0.0083,-0.1229 0.05735,0.041 0.1066,0.0573 0.13937,0.0983 0.04916,0.0655 0.09834,0.041 0.155693,0.0165 0.09012,-0.0491 0.180142,-0.0901 0.270261,-0.13105 0.01024,-0.006 0.01956,-0.009 0.02736,-0.01 z m -4.149443,0.25538 c -0.01339,-0.001 -0.02957,0.004 -0.048,0.0165 -0.06554,0.041 -0.130953,0.0984 -0.196494,0.14753 -0.04916,0.041 -0.09018,0.0409 -0.147533,0.008 -0.04916,-0.0246 -0.09834,-0.0492 -0.155692,-0.0656 -0.04096,-0.008 -0.08183,0 -0.106407,0 -0.09012,0.0819 -0.122955,0.20489 -0.06561,0.31139 0.06554,0.11469 0.06548,0.12283 -0.02464,0.22114 -0.0082,0.0164 -0.02445,0.0246 -0.03264,0.0409 -0.05735,0.0737 -0.123019,0.14753 -0.172175,0.22946 -0.06554,0.1065 -0.01632,0.18833 0.106569,0.18833 0.08193,0 0.163852,-0.008 0.245779,-0.008 0.05735,0 0.10644,0.0164 0.139211,0.0738 0.04096,0.0655 0.08205,0.13111 0.13121,0.19666 0.02458,0.0328 0.05735,0.0736 0.08193,0.0654 0.03277,-0.008 0.08186,-0.0409 0.09825,-0.0736 0.04096,-0.0901 0.0738,-0.18843 0.106569,-0.28674 0.01638,-0.0491 0.04087,-0.0819 0.106407,-0.0819 0.09012,0 0.180303,-0.008 0.270422,-0.0165 0.07373,-0.008 0.106441,-0.0737 0.05729,-0.13105 -0.05735,-0.0737 -0.131116,-0.14743 -0.196656,-0.21297 -0.08193,-0.0819 -0.155597,-0.15563 -0.139212,-0.29491 0.01638,-0.0901 -0.0081,-0.1803 -0.01632,-0.27042 -0.0051,-0.0359 -0.01992,-0.0556 -0.04224,-0.0575 z m -7.790047,1.6e-4 c -0.0082,0 -0.01626,-3e-5 -0.03264,0.008 -0.03277,0.1065 -0.0738,0.213 -0.106568,0.3277 -0.02458,0.0901 -0.05735,0.16382 -0.163853,0.17201 -0.04916,0.008 -0.09838,0.0163 -0.147532,0.0163 -0.07373,0 -0.09009,0.0247 -0.09009,0.0984 0,0.0409 0.0083,0.0819 0.01648,0.12289 0.01638,0.12289 -0.01651,0.18014 -0.13121,0.2293 -0.01639,0.008 -0.04087,0.0246 -0.06545,0.0246 -0.05735,0.008 -0.0656,0.0409 -0.0656,0.0901 0,0.0573 0.0083,0.13118 -0.02448,0.18034 -0.131082,0.2212 -0.294998,0.42589 -0.5161997,0.56516 -0.090119,0.0573 -0.188463,0.11482 -0.2785817,0.17217 -0.032773,-0.0491 -0.065477,-0.0901 -0.098248,-0.12289 -0.098312,-0.0901 -0.2048155,-0.17211 -0.3277054,-0.22946 -0.1802379,-0.0901 -0.3686683,-0.13105 -0.5734844,-0.13105 -0.032773,0 -0.065637,0.0327 -0.098407,0.0491 0.032773,0.0246 0.057478,0.0573 0.090246,0.0819 0.00819,0.008 0.024452,0.008 0.032643,0.008 0.1310821,0 0.26226,0.0328 0.3851498,0.0819 0.2212015,0.0819 0.4096318,0.20478 0.5325216,0.41779 0.040965,0.0737 0.090119,0.14753 0.1228899,0.22946 0.024581,0.0573 0.065445,0.0656 0.1064076,0.0656 0.00819,0 0.024643,-0.0575 0.024643,-0.0902 0,-0.041 -0.016421,-0.0818 -0.032804,-0.11457 -0.057348,-0.13108 -0.065445,-0.12289 0.057447,-0.20481 0.00819,0 0.00813,-0.008 0.016322,-0.008 0.098312,-0.0737 0.2047523,-0.1474 0.3030633,-0.22113 0.12289,-0.0983 0.204944,-0.22114 0.295064,-0.34403 0.08193,-0.0983 0.130986,-0.20482 0.147371,-0.3277 0.0082,-0.0164 0.01642,-0.0328 0.0328,-0.041 0.05735,-0.041 0.114665,-0.0738 0.172013,-0.11473 0.04916,-0.0328 0.06551,-0.0737 0.04913,-0.13106 -0.0082,-0.0328 -0.01632,-0.0573 -0.01632,-0.0819 -0.0082,-0.0983 0.0083,-0.12295 0.106568,-0.14753 0.05735,-0.0164 0.122826,-0.0327 0.180175,-0.0573 0.03277,-0.0163 0.07373,-0.0491 0.08193,-0.0819 0.01639,-0.13928 0.03277,-0.28681 0.04096,-0.43428 0,-0.0164 -0.01645,-0.0409 -0.02464,-0.0573 z m 7.701079,0.23746 c 0.01638,0.11469 0.02461,0.2131 0.0328,0.30322 0,0.0164 0.01642,0.0409 0.0328,0.0573 0.07373,0.0655 0.155661,0.13105 0.24578,0.21297 -0.08193,0.008 -0.139308,0.0165 -0.196656,0.0165 -0.106504,0 -0.139276,0.0246 -0.163853,0.13105 -0.01638,0.0655 -0.04087,0.13115 -0.06544,0.1885 -0.0082,0.0246 -0.01642,0.0409 -0.0328,0.0573 -0.05735,-0.0819 -0.106505,-0.1556 -0.163853,-0.22114 -0.02457,-0.0246 -0.06564,-0.041 -0.09841,-0.041 h -0.27842 c 0.01639,-0.0328 0.01625,-0.0492 0.03264,-0.0656 0.05735,-0.0737 0.122953,-0.13924 0.188495,-0.21298 0.106504,-0.12288 0.08186,-0.13117 0.01632,-0.26226 -0.02458,-0.0409 -0.04916,-0.0737 -0.08193,-0.12289 0.09831,-0.0246 0.155758,0.0246 0.221299,0.0656 0.08193,0.0491 0.122792,0.0492 0.188334,-0.0163 0.03277,-0.0246 0.05748,-0.0492 0.09025,-0.0738 0.0082,-0.008 0.01625,-0.008 0.03264,-0.0165 z m -3.260588,0.12287 c -0.01638,0.0819 0.01632,0.15576 -0.06561,0.2213 -0.15566,0.13107 -0.294967,0.27038 -0.442434,0.40146 -0.106505,0.0901 -0.22117,0.17202 -0.335867,0.25395 -0.237586,0.17204 -0.458787,0.3686 -0.655411,0.5898 -0.04096,0.0491 -0.09015,0.0656 -0.155692,0.0328 -0.07373,-0.041 -0.155563,-0.0738 -0.229297,-0.10657 -0.0082,-0.008 -0.0083,-0.0163 -0.01648,-0.0245 0.122889,-0.10649 0.245843,-0.20484 0.39331,-0.31954 0.147468,-0.12289 0.294968,-0.2621 0.442435,-0.38499 0.06554,-0.0655 0.147403,-0.10651 0.221137,-0.16385 0.07373,-0.0655 0.139243,-0.13115 0.212977,-0.18849 0.01639,-0.008 0.04106,-0.0164 0.05744,-0.0246 0.12289,-0.0246 0.245683,-0.0654 0.352187,-0.15554 0.05735,-0.0573 0.139371,-0.082 0.221298,-0.13121 z m 9.88e-4,0.35026 c 0.02151,-0.002 0.04413,0.0103 0.0728,0.0349 0.09831,0.0819 0.163789,0.18018 0.221137,0.30306 0.106505,0.23759 0.180303,0.48337 0.229458,0.73734 0.05735,0.31132 0.08193,0.62267 0.12289,0.934 0.01639,0.0901 0.0409,0.18845 0.05729,0.27858 0.0082,0.0246 0.0082,0.0573 0.0082,0.0819 -0.0082,0.0983 0.03277,0.14744 0.12289,0.17202 0.07373,0.0246 0.09018,0.0573 0.0656,0.13105 -0.03277,0.0737 -0.06551,0.1475 -0.13105,0.19665 -0.02458,0.0164 -0.04096,0.0573 -0.04096,0.0901 0.0082,0.27855 -0.08196,0.53249 -0.155692,0.78646 -0.05735,0.19662 -0.09831,0.38518 -0.12289,0.58181 -0.01639,0.11469 0.03274,0.22933 0.04913,0.34402 0.02458,0.15566 0.0409,0.31126 0.01632,0.46692 -0.0082,0.0328 -0.02458,0.0573 -0.04096,0.0819 -0.09012,0.0983 -0.106439,0.22129 -0.09825,0.34418 0,0.0656 -0.01635,0.12279 -0.0082,0.18833 0.0082,0.0983 -0.0328,0.18034 -0.07377,0.26227 -0.04096,0.0737 -0.09834,0.14743 -0.155693,0.21297 -0.0082,0.0164 -0.03274,0.0163 -0.04913,0.0163 -0.04096,0 -0.08193,1.6e-4 -0.12289,0.008 -0.03277,0 -0.05735,0.0163 -0.08193,0.0163 -0.106505,0.008 -0.147435,-0.0246 -0.13105,-0.13105 0.02458,-0.12289 0.0081,-0.23765 -0.01648,-0.35234 -0.01639,-0.0819 -0.01639,-0.18018 0,-0.26211 0.01639,-0.0573 0.07373,-0.10659 0.12289,-0.13937 0.09831,-0.0655 0.213137,-0.0818 0.336026,-0.0654 0.02458,0.008 0.05722,0.008 0.0736,-0.008 0.01639,-0.0164 0.04096,-0.041 0.04096,-0.0656 0,-0.0164 -0.03274,-0.0491 -0.04913,-0.0491 -0.04916,-0.008 -0.09822,-0.008 -0.147372,-0.008 -0.204815,-0.0164 -0.376926,0.0491 -0.5162,0.20481 -0.06554,0.0656 -0.0738,0.15554 -0.0656,0.23747 0.0082,0.0983 0.02461,0.19674 0.0328,0.29506 0.0082,0.0901 0,0.17198 0,0.2621 0,0.12289 0.04913,0.19659 0.172014,0.21298 0.07373,0.008 0.147531,0.008 0.229457,0.0165 -0.04096,0.0819 -0.07373,0.15554 -0.122889,0.23746 -0.04916,0.0737 -0.09834,0.14756 -0.155692,0.2213 -0.03277,0.0409 -0.07367,0.0736 -0.13921,0.0654 -0.06554,-0.008 -0.09012,-0.0326 -0.08193,-0.1064 v -0.0491 c 0.0082,-0.1065 -0.02454,-0.13931 -0.131051,-0.11473 -0.06554,0.0164 -0.122954,0.0246 -0.188495,0.0328 -0.01639,0 -0.04103,-0.008 -0.0656,-0.008 0.0082,-0.0246 0.0083,-0.0572 0.02464,-0.0736 0.05735,-0.0737 0.114665,-0.13927 0.172014,-0.20482 0.06554,-0.0737 0.05741,-0.22126 -0.01632,-0.27042 -0.04096,-0.0246 -0.114665,-0.0164 -0.172014,-0.0246 -0.04096,-0.008 -0.09025,0.008 -0.131211,0 -0.06554,-0.008 -0.08193,-0.0409 -0.04096,-0.0982 0.04916,-0.0655 0.114794,-0.13102 0.180335,-0.18018 0.08193,-0.0573 0.09834,-0.0737 0.0328,-0.16385 -0.05735,-0.0819 -0.09015,-0.17211 -0.07376,-0.27042 0.02458,-0.10651 -0.03284,-0.18846 -0.06561,-0.27858 -0.08193,-0.21301 -0.172013,-0.43421 -0.25394,-0.65542 -0.03277,-0.0901 -0.03283,-0.18013 -0.0656,-0.27025 -0.05735,-0.16386 8.2e-5,-0.31146 0.05744,-0.45892 0.09012,-0.2212 0.180173,-0.44237 0.2621,-0.66357 0.114697,-0.31951 0.21304,-0.64713 0.319545,-0.96664 l 0.196656,-0.61445 c 0.0082,-0.0328 0.0082,-0.082 -0.0082,-0.0984 -0.04096,-0.0491 -0.106505,-0.0246 -0.12289,0.041 -0.01639,0.0573 -0.0329,0.1065 -0.04928,0.16384 -0.03277,0.10651 -0.07367,0.20489 -0.09825,0.31139 -0.01639,0.0819 -0.05735,0.1557 -0.08193,0.23762 -0.03277,0.0819 -0.06551,0.16385 -0.09009,0.24578 -0.05735,0.18843 -0.106472,0.37676 -0.172012,0.557 -0.07373,0.20482 -0.155725,0.39334 -0.229459,0.58997 -0.03277,0.0819 -0.06548,0.15553 -0.09825,0.23746 -0.01639,0.0328 -0.04106,0.0656 -0.05745,0.0984 -0.01639,0.0573 -0.03271,0.10649 -0.05728,0.16385 l -0.0328,0.0654 c -0.03277,-0.0574 -0.06551,-0.0982 -0.09009,-0.13921 0.05735,-0.0737 0.05732,-0.0901 -0.0328,-0.12289 -0.131082,-0.0491 -0.270389,-0.0901 -0.401471,-0.13105 l -0.344049,-0.12289 c -0.106505,-0.0409 -0.221202,-0.0656 -0.327706,-0.10657 -0.15566,-0.0573 -0.303095,-0.13111 -0.458755,-0.19665 -0.08193,-0.0328 -0.172142,-0.0655 -0.262261,-0.0982 -0.0082,-0.008 -0.02461,-0.0246 -0.0328,-0.041 -0.02458,-0.0819 -0.07361,-0.0902 -0.155532,-0.0656 -0.04916,0.0164 -0.106537,-0.0162 -0.155692,-0.0326 -0.01639,0 -0.0082,-0.0492 -0.0082,-0.0738 0,-0.0246 0.0082,-0.041 0.0082,-0.0656 0.0082,0 0.0081,0.008 0.01632,0.008 0.02458,-0.041 0.05738,-0.0736 0.07376,-0.11457 0.04916,-0.14746 0.08189,-0.30312 0.131051,-0.45059 0.08193,-0.25397 0.163852,-0.49985 0.245779,-0.75382 0.03277,-0.1065 0.07376,-0.20472 0.114729,-0.31122 0.02458,-0.0573 0.05735,-0.0902 0.122889,-0.0575 0.06554,0.0328 0.131082,0.0573 0.204816,0.0819 0.180238,0.0655 0.368605,0.13111 0.548843,0.19665 0.245779,0.0901 0.491558,0.17205 0.737337,0.24578 0.15566,0.0491 0.319545,0.082 0.483398,0.11473 0.09012,0.0163 0.09838,0.0328 0.0656,0.11472 -0.0082,0.0246 -0.0082,0.0573 0,0.0819 0.01639,0.0491 -0.0083,0.0736 -0.02464,0.11457 -0.05735,0.12289 -0.106409,0.2541 -0.147371,0.37699 l -0.172174,0.54068 c -0.04916,0.15566 -0.106377,0.3031 -0.155532,0.45876 -0.02458,0.0737 -0.03277,0.14753 -0.04096,0.22945 0,0.0246 0.03271,0.0572 0.05728,0.0736 0.03277,0.0246 0.04909,-0.008 0.05728,-0.0409 0.06554,-0.18024 0.122986,-0.35215 0.180334,-0.52421 0.06554,-0.20481 0.122922,-0.41795 0.196656,-0.62276 0.09012,-0.26216 0.188431,-0.51601 0.286743,-0.76998 0.01638,-0.041 -0.0083,-0.0984 -0.05744,-0.0984 -0.04916,0 -0.06554,-0.0245 -0.08193,-0.0654 -0.02458,-0.0573 -0.04915,-0.1147 -0.08193,-0.16386 -0.02458,-0.0328 -0.04916,-0.0655 -0.08193,-0.0819 -0.01639,-0.0164 -0.04919,-7e-5 -0.07377,0.0163 -0.0082,0.0164 -0.01635,0.0492 -0.0082,0.0656 0.0082,0.0328 0.02454,0.0654 0.04912,0.11458 -0.04096,-0.008 -0.06551,3e-5 -0.09009,-0.008 -0.172046,-0.0491 -0.343995,-0.10654 -0.516041,-0.1557 -0.106504,-0.0328 -0.204879,-0.0573 -0.311384,-0.0901 -0.131082,-0.041 -0.262228,-0.0819 -0.39331,-0.13105 l -0.712696,-0.27043 c -0.02458,-0.008 -0.04922,-0.0409 -0.06561,-0.0654 -0.05735,-0.0901 -0.09822,-0.1803 -0.147371,-0.27042 -0.02458,-0.0328 -0.05741,-0.0573 -0.106569,-0.0983 0.04096,0 0.06554,-3e-5 0.08193,0.008 l 0.786461,0.27042 c 0.204816,0.0655 0.401503,0.13924 0.598126,0.21298 0.06554,0.0246 0.131115,0.0573 0.196656,0.0901 0.163852,0.0901 0.335802,0.14743 0.51604,0.172 0.03277,0.008 0.05741,-0.0164 0.106568,-0.0328 -0.05735,-0.0409 -0.09005,-0.0736 -0.139211,-0.11456 0.147468,-0.13927 0.270357,-0.27858 0.409632,-0.40147 0.139275,-0.13108 0.294807,-0.24578 0.442275,-0.36867 0.122889,-0.0983 0.254068,-0.19659 0.38515,-0.2949 0.04096,-0.0328 0.06548,-0.0656 0.09825,-0.0984 0.02457,-0.0328 0.04506,-0.0491 0.06656,-0.0512 z m -6.7680481,0.25602 c -0.016383,0 -0.041026,0.0246 -0.065605,0.0328 0.01639,0.0246 0.024575,0.0492 0.040965,0.0656 0.00819,0.0164 0.016421,0.0245 0.032804,0.0245 0.073734,0.0246 0.1474039,0.041 0.2211379,0.0656 0.1392745,0.0409 0.2950306,0.0655 0.3851498,0.20482 0.00819,0.0164 0.024452,0.0245 0.032643,0.0245 0.024575,0 0.057348,0.008 0.081927,-0.008 0.016383,-0.008 0.00819,-0.0492 0,-0.0738 -0.00819,-0.0246 -0.024575,-0.049 -0.040965,-0.0736 0.00819,-0.008 0.00819,-0.008 0,-0.0165 -0.065541,-0.0491 -0.1310822,-0.0983 -0.2048156,-0.13105 -0.1065046,-0.041 -0.2128813,-0.0655 -0.3193853,-0.0901 -0.057348,-0.0164 -0.1065039,-0.0246 -0.1638527,-0.0246 z m -4.1107178,0.44676 c -0.057527,-1.7e-4 -0.1105683,0.0325 -0.1412912,0.0939 -0.073733,0.13109 -0.024544,0.25398 0.032804,0.36867 0.024575,0.0573 0.081863,0.0656 0.1392109,0.0575 0.090119,-0.0164 0.1638848,-0.0738 0.1966553,-0.15569 0.032773,-0.0901 0.040866,-0.1803 -0.016482,-0.27042 -0.032773,-0.0164 -0.065445,-0.0409 -0.1064082,-0.0573 -0.033798,-0.0246 -0.069973,-0.0365 -0.1044885,-0.0367 z m 0.00611,0.15953 c 0.016383,0.0164 0.041027,0.0327 0.065605,0.0491 0.01639,0.008 0.032736,0.0246 0.049126,0.0409 -0.00819,0.0164 -0.0081,0.0409 -0.024483,0.0491 -0.024581,0.0246 -0.057478,0.041 -0.090247,0.0575 -0.016383,-0.0246 -0.032773,-0.0492 -0.040965,-0.0738 0,-0.008 -0.00819,-0.0327 0,-0.0491 0.00819,-0.0246 0.024581,-0.0492 0.040965,-0.0738 z m 2.9986336,0.58981 c -0.016383,0.041 -0.024612,0.0656 -0.032804,0.0984 -0.00819,0.0737 -0.01642,0.15569 -0.032804,0.23761 0,0.0246 -0.024544,0.0491 -0.049126,0.0654 -0.049156,0.0328 -0.090183,0.0492 -0.1065681,0.11473 -0.01639,0.0491 -0.073766,0.0819 -0.114729,0.12288 -0.1065046,0.11471 -0.2293938,0.22114 -0.3277055,0.34404 -0.1310821,0.16384 -0.2621322,0.34412 -0.3768291,0.52435 -0.065541,0.10651 -0.1146969,0.22117 -0.1638527,0.33587 -0.057348,0.13928 -0.1228898,0.27868 -0.1638533,0.41796 -0.032773,0.12288 -0.032736,0.2539 -0.049126,0.38498 -0.00819,0.0901 -0.024513,0.18847 -0.016322,0.27858 0.00819,0.13928 0.024513,0.28669 0.057286,0.42596 0.024575,0.12289 0.049218,0.24581 0.1065682,0.36051 0.065541,0.13927 0.1638206,0.2621 0.2539399,0.38498 0.049156,0.0656 0.1064718,0.13115 0.1720129,0.1885 0.1310822,0.12289 0.2785502,0.22121 0.4505953,0.28674 0.1966232,0.0737 0.3933107,0.0983 0.5981269,0.0983 0.180238,0.008 0.3603476,-0.0246 0.5242009,-0.0901 l 0.2457791,-0.1229 c 0.016383,-0.008 0.041057,-0.0163 0.057447,-0.0163 0.1474674,0.0246 0.2866462,0.0573 0.4341137,0.0901 v 0.0246 c -0.098312,0.0328 -0.1965276,0.0736 -0.3112239,0.10641 -0.1966232,0.0491 -0.4014715,0.1066 -0.6062877,0.13937 -0.2293939,0.0328 -0.4669485,0.0572 -0.7045346,0.0654 -0.2703573,0.0164 -0.5326179,-0.0491 -0.7538188,-0.22929 -0.032773,-0.0246 -0.049027,-0.0575 -0.073606,-0.0903 -0.081927,-0.10651 -0.1803664,-0.20469 -0.2540998,-0.31939 -0.1310828,-0.20481 -0.2212015,-0.42601 -0.2867425,-0.65541 -0.040965,-0.14747 -0.065509,-0.31141 -0.090087,-0.46707 -0.00819,-0.041 0.00816,-0.0738 0.00816,-0.11473 0,-0.12289 -0.00807,-0.24578 0.00832,-0.36867 0.032773,-0.23758 0.040897,-0.4833 0.139211,-0.7127 0.049156,-0.12288 0.098247,-0.24578 0.1392109,-0.36867 0.065541,-0.19662 0.1803663,-0.3605 0.2950626,-0.52436 0.180238,-0.25397 0.393215,-0.47507 0.6226088,-0.67989 0.1146969,-0.0983 0.2374905,-0.20491 0.352188,-0.30322 0.00819,-0.008 0.024705,-0.0164 0.049286,-0.0328 z m -0.081926,0.59813 0.024483,0.12288 c 0.040965,0.12289 0.073798,0.24575 0.1065682,0.37684 0.00819,0.0328 -9.82e-5,0.082 -0.016482,0.11472 -0.065541,0.12289 -0.1392751,0.23762 -0.2048162,0.36051 -0.098312,0.18024 -0.155532,0.38502 -0.1964955,0.58164 -0.024581,0.14747 -0.073862,0.3031 -0.049286,0.45876 0.016383,0.13108 0.00825,0.27039 0.024643,0.40147 0.00819,0.0574 0.032705,0.10651 0.057286,0.16385 0.00819,0.0246 0.024612,0.0409 0.032804,0.0573 -0.090119,0.0573 -0.090023,0.0655 -0.065445,0.16385 -0.040965,0.0246 -0.081926,0.0493 -0.1228893,0.0575 -0.081926,0.0573 -0.098376,0.13109 -0.065605,0.24578 0.01639,0.0491 0.040934,0.0901 0.049126,0.13105 0.00819,0.041 0.00822,0.082 -0.00816,0.11473 -0.024581,0.0328 -0.065478,0.0655 -0.098248,0.0983 -0.024581,0.041 -0.049156,0.0819 -0.081926,0.13105 -0.040965,-0.0491 -0.081958,-0.0819 -0.114729,-0.12289 -0.065541,-0.0819 -0.1474675,-0.15566 -0.2048156,-0.24578 -0.057348,-0.0983 -0.1147611,-0.20469 -0.1475316,-0.31939 -0.049156,-0.16385 -0.090024,-0.34415 -0.1064083,-0.5162 -0.016383,-0.13108 0.00813,-0.27036 0.016322,-0.40963 0.01639,-0.27035 0.098376,-0.51607 0.229458,-0.75366 0.1146969,-0.19662 0.2129443,-0.40157 0.3440265,-0.5818 0.1228898,-0.18024 0.2868067,-0.32771 0.4342741,-0.49156 0.040965,-0.0491 0.106504,-0.0901 0.1638528,-0.13921 z M 16.292,284.7855 c -0.01638,10e-4 -0.03284,0.005 -0.04513,0.009 -0.04096,0.0164 -0.06544,0.0409 -0.106408,0.0573 -0.253972,0.1147 -0.516232,0.22114 -0.712855,0.42595 -0.03277,0.0246 -0.05732,0.0492 -0.09009,0.0738 -0.03277,0.0246 -0.04922,0.10648 -0.02464,0.13105 0.04096,0.0328 0.08196,0.0246 0.114729,-0.008 l 0.04913,-0.0491 c 0.114697,-0.0901 0.229426,-0.19669 0.360508,-0.27042 0.163853,-0.0901 0.335994,-0.16386 0.50804,-0.24579 0.01639,-0.008 0.04096,-0.0327 0.04096,-0.0491 -0.0082,-0.0246 -0.0247,-0.0572 -0.04929,-0.0654 -0.01229,-0.008 -0.02858,-0.0103 -0.04497,-0.009 z m -8.2787257,0.16481 c 0.040965,0.0737 0.081958,0.13934 0.114729,0.18849 0.00819,0.0164 0.00822,0.0573 -0.00816,0.0738 -0.1228892,0.0983 -0.1883988,0.22936 -0.2129764,0.37683 -0.024581,0.14747 -0.049218,0.2868 -0.065605,0.43427 -0.00819,0.0491 -3.15e-5,0.10651 0.00816,0.16386 0.016383,0.0983 0.024575,0.1883 0.040965,0.27842 0.040965,0.17205 0.073734,0.34418 0.1228898,0.50804 0.00819,0.041 0.049156,0.0736 0.081926,0.10641 0.090119,0.0983 0.1721413,0.20491 0.26226,0.30322 0.040965,0.041 0.090023,0.0818 0.1473718,0.10641 0.1556597,0.0737 0.3113843,0.15569 0.475237,0.19665 0.3031272,0.0737 0.6062229,0.11467 0.9093507,0.008 0.1966228,-0.0737 0.4096958,-0.11469 0.5981258,-0.20482 0.278551,-0.13927 0.557004,-0.29493 0.802783,-0.49155 0.196624,-0.15566 0.401535,-0.2949 0.589966,-0.45876 0.196624,-0.18023 0.385054,-0.37686 0.573485,-0.57349 0.06554,-0.0655 0.130954,-0.13927 0.196495,-0.20481 0.01639,-0.0164 0.04106,-0.0326 0.05744,-0.0245 l 0.319545,0.14737 c 0.0082,0 0.0081,0.008 0.01632,0.0165 -0.04096,0.0491 -0.09009,0.0901 -0.13105,0.13104 -0.155661,0.13928 -0.311417,0.28668 -0.467077,0.42595 -0.09831,0.0901 -0.196591,0.18035 -0.294903,0.26227 -0.09831,0.0819 -0.20472,0.16372 -0.311224,0.23746 -0.09831,0.0737 -0.204816,0.13121 -0.286742,0.21313 -0.196624,0.18024 -0.426017,0.31949 -0.655411,0.45876 -0.04096,0.0246 -0.07373,0.0655 -0.12289,0.0901 -0.303127,0.16385 -0.622673,0.27848 -0.974956,0.30306 -0.1638527,0.0164 -0.3277374,0.0164 -0.4833972,-0.008 -0.1638533,-0.0246 -0.3195773,-0.0738 -0.4752371,-0.11473 -0.2212014,-0.0573 -0.417729,-0.17198 -0.5979664,-0.30306 -0.098312,-0.0737 -0.1721419,-0.19662 -0.2622606,-0.28675 -0.1310822,-0.13927 -0.1801744,-0.31954 -0.2621008,-0.48339 -0.065541,-0.1147 -0.090055,-0.23759 -0.098247,-0.36867 0,-0.0573 0.00819,-0.11467 0,-0.17202 -0.024575,-0.29493 0.040866,-0.57355 0.1473717,-0.8439 0.057348,-0.14747 0.1310822,-0.28665 0.2048156,-0.43411 0.00819,-0.0164 0.024581,-0.0328 0.040965,-0.0575 z m 3.0413567,0.0462 c 0.140939,-0.004 0.280854,0.0111 0.416033,0.0357 0.0082,0 0.02445,0.0164 0.03264,0.0246 0.01639,0.0246 0.03277,0.0492 0.04096,0.0738 0.04916,0.13109 0.122922,0.23756 0.278582,0.25395 0.03277,0 0.0656,0.0246 0.106568,0.0409 -0.04915,0.0574 -0.09841,0.11467 -0.139371,0.17202 -0.147467,0.18024 -0.294935,0.36877 -0.450595,0.549 -0.114697,0.13928 -0.245651,0.26204 -0.360348,0.40131 -0.09012,0.1147 -0.188526,0.22943 -0.303223,0.31955 -0.180238,0.15566 -0.368701,0.30316 -0.565325,0.44243 -0.09831,0.0655 -0.2047515,0.11467 -0.3030632,0.17202 -0.040965,0.0246 -0.073766,0.0655 -0.114729,0.0819 -0.065541,0.0246 -0.1474032,0.0575 -0.2211372,0.0575 -0.180238,0 -0.360476,-0.0329 -0.5325216,-0.0902 -0.3686683,-0.12289 -0.6635717,-0.34403 -0.8274244,-0.7127 -0.032773,-0.0737 -0.032897,-0.16385 -0.049286,-0.24578 -0.024581,-0.14747 -0.065413,-0.3031 -0.073606,-0.45876 -0.00819,-0.12288 0.024452,-0.24577 0.032643,-0.36866 0.00819,-0.13928 0.082023,-0.25394 0.1393714,-0.37683 0.00819,-0.0164 0.024581,-0.041 0.040965,-0.041 0.00819,0 0.032773,0.0162 0.040965,0.0326 0.065541,0.0983 0.1227936,0.20495 0.188334,0.29507 0.065542,0.0901 0.1312106,0.1802 0.213137,0.25393 0.081926,0.0819 0.1637885,0.16379 0.2621001,0.22114 0.073734,0.0491 0.1719815,0.0738 0.2621008,0.0984 0.049156,0.0164 0.081958,-0.0246 0.073766,-0.0819 0,-0.008 -0.00816,-0.0247 -0.00816,-0.0493 0.040965,0.008 0.073798,0.0164 0.1065682,0.0328 l 0.3849905,-0.12289 c 0.081926,0.008 0.1229214,-0.0245 0.1556919,-0.0982 0.024575,-0.0655 0.057348,-0.13924 0.081926,-0.21297 0.024575,-0.0819 0.016322,-0.16385 -0.024643,-0.24578 -0.024581,-0.0409 -0.032742,-0.0821 -0.049126,-0.13121 0.1065045,0.0164 0.1475315,-0.0162 0.1884945,-0.15553 0.05735,-0.18024 0.01625,-0.13937 0.196495,-0.13937 0.213009,0 0.426082,0.0164 0.63909,-0.0163 0.04711,-0.006 0.09415,-0.01 0.141131,-0.0112 z m 7.267126,0.088 c -0.04096,-0.001 -0.08397,0.0173 -0.13313,0.0543 -0.03277,0.0491 -0.0738,0.0984 -0.106568,0.14754 -0.04096,0.0737 -0.0083,0.16372 0.05729,0.19649 0.06554,0.0328 0.139403,0.0492 0.213136,0.0246 0.04916,-0.0164 0.114666,-0.0246 0.131051,-0.0901 0.02457,-0.0573 0.041,-0.12298 0.0328,-0.18033 0,-0.0328 -0.04919,-0.0655 -0.07377,-0.0901 -0.04096,-0.041 -0.07985,-0.0614 -0.12081,-0.0624 z m -0.05121,0.14433 c 0.02457,0 0.07361,-4e-5 0.07361,0.008 0,0.0491 0.01642,0.1066 -0.0082,0.13937 -0.03277,0.041 -0.08196,0.0163 -0.114731,-0.0165 -0.04096,-0.0573 0.02471,-0.0819 0.04929,-0.13106 z m -2.296339,0.0933 c -0.01152,6.2e-4 -0.02423,0.005 -0.03856,0.0133 -0.15566,0.0983 -0.311321,0.19666 -0.450595,0.27859 l -0.163853,0.16385 c -0.01638,0.0246 -0.0083,0.0573 -0.0083,0.0901 0.03277,0 0.06567,0.008 0.09025,-0.008 0.06554,-0.041 0.122826,-0.0819 0.180174,-0.1229 l 0.417793,-0.27042 c 0.03277,-0.0246 0.0737,-0.0409 0.04913,-0.0901 -0.01843,-0.0307 -0.04145,-0.0569 -0.07601,-0.0543 z m -3.887503,0.18337 c 0.0055,-6.2e-4 0.01062,-1.7e-4 0.01472,0.002 0.07373,0.0246 0.155628,0.0573 0.25394,0.0983 -0.04916,0.0573 -0.09009,0.0984 -0.131051,0.14753 l -0.09825,0.12289 -0.172173,0.17202 c -0.12289,0.12288 -0.229395,0.25403 -0.327706,0.3933 -0.05735,0.0901 -0.139243,0.16386 -0.212977,0.24579 0,0 -0.01632,0.008 -0.01632,0.0163 -0.05735,0.13928 -0.196687,0.1885 -0.311384,0.27043 -0.163853,0.11469 -0.343995,0.21291 -0.51604,0.31122 -0.114698,0.0655 -0.22949,0.11483 -0.344187,0.17217 h -0.0328 c 0.05735,-0.0491 0.106504,-0.0902 0.163853,-0.13937 0.180238,-0.14746 0.360476,-0.2949 0.532521,-0.45876 0.163853,-0.15566 0.294967,-0.3277 0.442435,-0.49155 0.06554,-0.0737 0.139275,-0.14741 0.204816,-0.22114 0.122889,-0.13108 0.22949,-0.27035 0.344187,-0.40963 0.05735,-0.0655 0.106504,-0.13928 0.163852,-0.20481 0.0061,-0.0123 0.02605,-0.0246 0.04256,-0.0265 z m 0.416193,0.15761 c -0.0082,0.0901 -0.499847,0.6062 -0.589966,0.63077 0.196623,-0.20482 0.38515,-0.40957 0.589966,-0.63077 z m 0.779741,0.29939 c 0.04848,0.002 0.100968,0.0253 0.121449,0.0611 0.04096,0.0737 0.09009,0.13108 0.131051,0.20481 0.122889,0.20482 0.245779,0.4178 0.368668,0.62261 0.01639,0.0164 0.02452,0.0492 0.01632,0.0738 -0.09012,0.25397 -0.0737,0.50781 -0.04912,0.76998 0.02458,0.27036 0.02464,0.53258 0.02464,0.80294 0,0.45879 -0.04925,0.90939 -0.139371,1.35179 -0.04916,0.24577 -0.12289,0.49156 -0.286742,0.69637 -0.07373,0.0901 -0.12289,0.19669 -0.204816,0.27042 -0.06554,0.0574 -0.114633,0.13915 -0.221137,0.15553 -0.04916,0.008 -0.09009,0.0575 -0.131051,0.0903 -0.07373,0.0491 -0.139371,0.11463 -0.221297,0.13921 -0.155661,0.0491 -0.319449,0.0409 -0.466917,-0.0246 -0.01639,-0.008 -0.03274,-0.0327 -0.04912,-0.0327 h -0.09011 c 0.0082,0.0246 0.0081,0.0572 0.02448,0.0736 0.06554,0.0983 0.163917,0.10651 0.270421,0.1229 0.05735,0.008 0.122826,0.0164 0.180174,0.0246 0.04096,0.008 0.08193,3e-5 0.12289,-0.008 0.08193,-0.0164 0.163917,-0.041 0.229458,-0.10657 0.01639,-0.008 0.041,-0.0163 0.07377,-0.041 0,0.0901 -1.64e-4,0.17205 0.03264,0.24579 0,0.0983 8.2e-5,0.19662 -0.02448,0.28674 -0.04916,0.15566 -0.106568,0.3196 -0.188495,0.46707 -0.09012,0.15566 -0.204816,0.31133 -0.327705,0.4506 -0.09831,0.1065 -0.229299,0.18833 -0.352188,0.27026 -0.04916,0.0328 -0.114825,0.0575 -0.172173,0.0984 -0.180239,0.13108 -0.475077,0.0901 -0.63893,-0.0246 -0.09831,-0.0655 -0.172013,-0.18027 -0.25394,-0.27858 -0.04096,-0.0574 -0.0738,-0.11464 -0.106568,-0.18018 -0.09831,-0.19662 -0.09828,-0.4096 -0.04913,-0.62261 0.04096,-0.18023 0.09002,-0.36047 0.229298,-0.49155 0.09012,-0.0819 0.131146,-0.17218 0.106568,-0.29507 -0.0082,-0.0246 -3.2e-5,-0.0491 0.0082,-0.0819 0.06554,0.0328 0.131113,0.0573 0.196654,0.0819 0.01639,0 0.04922,-0.008 0.0656,-0.0163 0.0082,-0.008 0.0082,-0.0409 0.0082,-0.0573 0,-0.008 -0.0083,-0.0164 -0.01648,-0.0246 -0.15566,-0.0901 -0.278453,-0.20478 -0.39315,-0.33586 -0.06554,-0.0819 -0.05741,-0.18031 -0.06561,-0.27043 0,-0.12289 -3.2e-5,-0.25393 0.0082,-0.37682 0.01639,-0.18844 0.041,-0.3769 0.07376,-0.56533 0.03277,-0.17204 0.0328,-0.33586 -0.0082,-0.49972 0,-0.0164 -0.0082,-0.041 -0.0082,-0.0656 0.09012,0.041 0.172013,0.0903 0.253939,0.13122 0.04916,0.0246 0.09834,0.0491 0.155692,0.0654 0.02458,0 0.04919,-0.0163 0.07377,-0.0245 -0.0082,-0.0246 -0.01642,-0.0574 -0.0328,-0.0738 l -0.270421,-0.17202 c -0.02458,-0.0164 -0.04919,-0.041 -0.07376,-0.0575 0,-0.008 0.0083,-0.0163 0.0083,-0.0245 0.05735,0.008 0.114697,0.0163 0.163853,0.0245 0.237586,0.0573 0.475077,0.0573 0.720856,0.041 0.03277,0 0.0738,-0.0164 0.106568,-0.0328 0.01639,0 0.0328,-0.0246 0.0328,-0.041 0,-0.0164 -0.01642,-0.041 -0.0328,-0.041 -0.07373,-0.0164 -0.155724,-0.0408 -0.229458,-0.0326 -0.229394,0.0246 -0.450531,-0.008 -0.671732,-0.0493 -0.09012,-0.0164 -0.188462,-0.0162 -0.278582,-0.0326 -0.04916,0 -0.09005,-0.0165 -0.139211,-0.0493 0.03277,-0.008 0.05732,-0.0163 0.09009,-0.0163 0.278549,-0.0164 0.548906,-0.10644 0.819263,-0.18017 0.09831,-0.0246 0.188463,-0.041 0.278582,-0.0738 0.03277,-0.008 0.06554,-0.0328 0.08193,-0.0656 0.0082,-0.0164 -0.02471,-0.0737 -0.04928,-0.0819 -0.03277,-0.0164 -0.0818,-0.008 -0.114569,0 -0.15566,0.0491 -0.311416,0.10656 -0.467076,0.14753 -0.245779,0.0655 -0.483366,0.13108 -0.737338,0.12289 -0.114696,0 -0.221169,-0.0246 -0.335866,-0.0328 -0.03277,-0.008 -0.0737,-6e-5 -0.09009,0.0163 -0.02457,0.0328 0.0081,0.0983 0.05729,0.11473 0.07373,0.0246 0.1475,0.0328 0.237619,0.0575 -0.08193,0.0819 -0.147404,0.16372 -0.221137,0.23746 -0.06554,0.0737 -0.139403,0.15575 -0.213137,0.22129 -0.09012,0.0819 -0.188367,0.14737 -0.2621001,0.2293 -0.090119,0.10651 -0.1884631,0.20482 -0.2376189,0.32771 -0.065541,0.13108 -0.073766,0.28681 -0.114729,0.43427 -0.065541,0.21301 -0.1228892,0.43425 -0.2048161,0.64725 -0.081926,0.22939 -0.1966233,0.4505 -0.286742,0.67989 -0.065541,0.14747 -0.1145691,0.29494 -0.155532,0.4506 -0.057348,0.22939 -0.090215,0.45882 -0.1393708,0.68821 -0.01639,0.0901 -0.057286,0.17211 -0.1392109,0.22946 -0.1065045,0.0737 -0.082023,0.18027 -0.057447,0.27858 0.024581,0.0983 0.00819,0.18024 -0.081927,0.24578 -0.073733,0.0573 -0.1310821,0.12283 -0.2048155,0.18018 -0.081926,0.0655 -0.098184,0.15566 -0.1145692,0.24577 -0.016383,0.0901 -1.308e-4,0.18031 -0.00832,0.27043 0,0.0655 -0.032736,0.12279 -0.049126,0.18833 -0.024581,0.0983 -0.057317,0.20491 -0.090088,0.30323 -0.016383,0.0491 -0.040996,0.0982 -0.073766,0.14737 -0.1310822,0.21301 -0.3113523,0.37683 -0.5243608,0.49972 -0.1720456,0.0901 -0.3604124,0.11475 -0.5488427,0.0656 -0.073734,-0.0246 -0.1392751,-0.0737 -0.2048162,-0.12289 -0.090119,-0.0655 -0.1638527,-0.13924 -0.245779,-0.21298 -0.1310822,-0.12289 -0.1720451,-0.27861 -0.2048156,-0.43427 -0.032773,-0.18024 -0.040965,-0.36044 0,-0.54068 0.032773,-0.13108 0.073765,-0.25394 0.114729,-0.37683 0.040965,-0.12289 0.090087,-0.25394 0.1310501,-0.37683 0.040965,-0.1065 0.016383,-0.21311 -0.040965,-0.30322 -0.057348,-0.0983 -0.049156,-0.18015 0,-0.27027 0.057348,-0.12288 0.1228899,-0.2459 0.1638528,-0.37699 0.032773,-0.1065 0.032773,-0.22929 0.040965,-0.35218 0,-0.0164 3.21e-5,-0.0328 -0.00816,-0.041 -0.098312,-0.13928 -0.057317,-0.27865 -0.00816,-0.42611 0.032773,-0.0983 0.073638,-0.19656 0.1064089,-0.30307 0.016383,-0.0655 0.016445,-0.13111 0.024643,-0.19665 0.024575,-0.14747 0.049187,-0.28665 0.073765,-0.43412 0.049156,-0.2212 0.090055,-0.45065 0.1392109,-0.68004 0.049157,-0.2294 0.1146648,-0.45067 0.1720136,-0.68006 0.024581,-0.1147 0.049218,-0.22121 0.065605,-0.32771 0.00819,-0.0491 0.016414,-0.0655 0.073766,-0.0573 0.2867425,0.0491 0.5651637,0.0409 0.8519063,0 0.1966233,-0.0246 0.3933428,-0.041 0.5899661,-0.0819 0.1556597,-0.0328 0.3031272,-0.0819 0.4505952,-0.13921 0.1556598,-0.0573 0.3031278,-0.13927 0.4505953,-0.20481 0.040965,-0.0164 0.090086,-0.0246 0.13105,-0.0328 0.1392745,-0.0246 0.2785176,-0.0328 0.4177926,-0.0656 0.270357,-0.0655 0.524425,-0.17205 0.753819,-0.32771 0.106504,-0.0737 0.229362,-0.13105 0.335866,-0.21298 0.213013,-0.15566 0.417797,-0.31954 0.622612,-0.48339 l 0.565325,-0.46692 c 0.172045,-0.14747 0.352315,-0.29493 0.524361,-0.45059 0.06554,-0.0491 0.122825,-0.11467 0.180173,-0.17202 0.01843,-0.0154 0.04612,-0.0215 0.07521,-0.0202 z m 0.334426,0.11841 c 0.106504,0.0246 0.221169,0.0327 0.294903,0.13921 0.01639,0.0246 0.02454,0.0574 0.04912,0.0738 0.131082,0.13108 0.08205,0.26214 0.0083,0.4178 -0.12289,-0.21301 -0.245779,-0.41783 -0.368669,-0.61445 z m 1.7891,0.5602 c -0.06042,-10e-4 -0.12193,0.005 -0.183375,0.0214 -0.04916,0.0164 -0.06545,0.082 -0.02448,0.10657 0.03277,0.0246 0.08193,0.0328 0.12289,0.0328 0.05735,0 0.106504,-0.0164 0.163853,-0.0246 0.05735,-0.0164 0.114665,-0.0246 0.172013,-0.0328 0,-0.008 -3.2e-5,-0.0164 0.0082,-0.0328 -0.03277,-0.0164 -0.04916,-0.0409 -0.08193,-0.0491 -0.05735,-0.0123 -0.116714,-0.0204 -0.177134,-0.0214 z m 0.409791,0.29602 c -0.308454,-0.009 -0.570605,0.13713 -0.847106,0.29074 0,0.008 -0.01635,0.041 -0.0082,0.0738 0.01639,0.0491 0.106537,0.0656 0.155692,0.0328 0.204816,-0.13928 0.434082,-0.23759 0.688054,-0.24578 0.04916,0 0.09837,0.008 0.147531,0 0.03277,-0.008 0.06551,-0.0329 0.09009,-0.0493 -0.01639,-0.0246 -0.02457,-0.0572 -0.04096,-0.0654 -0.04096,-0.0164 -0.08193,-0.0328 -0.122889,-0.0328 -0.02099,-0.002 -0.04168,-0.003 -0.06224,-0.004 z m -8.1548755,0.22513 c 0.016389,0 0.040934,0.0164 0.049125,0.0328 0.1638521,0.30313 0.4095997,0.53253 0.7045346,0.69638 0.081926,0.041 0.1803022,0.0738 0.2704209,0.10656 0.01639,0 0.024513,0.0164 0.057286,0.0328 -0.090119,0.0328 -0.1555962,0.0573 -0.2211373,0.0819 -0.098312,0.0246 -0.1967511,0.0491 -0.2950627,0.0573 -0.1146969,0.008 -0.2212014,-0.008 -0.327706,-0.0163 -0.1884303,-0.0164 -0.3603797,-0.0739 -0.5160401,-0.17217 -0.065541,-0.041 -0.073798,-0.0655 -0.024643,-0.13105 0.040965,-0.0491 0.081926,-0.0901 0.1228892,-0.13106 0.073734,-0.0737 0.090151,-0.17197 0.032804,-0.26209 -0.1065039,-0.16386 -0.024513,-0.27049 0.1475316,-0.29507 z m 0.2176173,2.11361 c -0.00922,-3.1e-4 -0.019038,0.002 -0.029285,0.008 -0.016383,0.0163 -0.040866,0.082 -0.024482,0.10656 0.040965,0.0983 0.098312,0.19666 0.1638527,0.27859 0.098312,0.1065 0.2128807,0.21291 0.3193847,0.31122 0.1228898,0.12289 0.2622285,0.24581 0.3933107,0.36051 0.01639,0.0164 0.057348,0.0163 0.081926,0.0163 0,-0.0246 -0.00813,-0.0409 -0.016322,-0.0654 -0.049157,-0.13108 -0.1802701,-0.22945 -0.1556925,-0.39331 0.00819,-0.041 -0.016421,-0.0901 -0.032804,-0.15569 0.032773,0.008 0.049095,0.0164 0.057286,0.0328 0.090119,0.0573 0.1803022,0.12286 0.2704215,0.17201 0.024575,0.0164 0.065477,0.0164 0.098247,0.0246 0.01639,0 0.040965,-0.008 0.040965,-0.0246 0.00819,-0.0164 3.14e-5,-0.0409 -0.00816,-0.0573 -0.024581,-0.0328 -0.057317,-0.0655 -0.090087,-0.0819 -0.1474674,-0.0819 -0.3030951,-0.16385 -0.4587555,-0.24577 -0.040965,-0.0246 -0.07383,-0.008 -0.098407,0.041 -0.024581,0.0491 0.00822,0.082 0.032804,0.11472 0.057348,0.0655 0.073766,0.13931 0.073766,0.23762 -0.2457791,-0.16385 -0.4505311,-0.34409 -0.5488427,-0.61445 -0.018433,-0.0369 -0.041477,-0.0646 -0.069125,-0.0658 z m 3.3820232,2.03808 c -0.0052,-6.2e-4 -0.0093,3e-5 -0.01136,0.002 -0.01639,0.0164 -0.03267,0.0491 -0.02448,0.0654 0.01639,0.041 0.0327,0.082 0.05728,0.10657 0.09831,0.0983 0.204784,0.16385 0.335866,0.20482 0.08193,0.0246 0.155692,0.0573 0.237619,0.0819 0,0.0164 -0.0082,0.0246 0,0.0328 -0.08193,0.008 -0.163885,0.0245 -0.237619,0.0163 -0.07373,-0.008 -0.147403,-0.0491 -0.221137,-0.0654 -0.04096,-0.0164 -0.09841,0.0245 -0.09841,0.0654 0,0.0491 0.0082,0.0901 0.07377,0.0901 0.106504,0 0.213041,0.0164 0.319545,0.0328 0.196623,0.0164 0.368733,-0.0328 0.5162,-0.16386 0.04096,-0.0328 0.05722,-0.0738 0.03264,-0.11472 -0.02458,-0.041 -0.06554,-0.0737 -0.12289,-0.0573 -0.180238,0.0491 -0.352219,-0.0164 -0.507879,-0.0819 -0.106504,-0.041 -0.196592,-0.13112 -0.294903,-0.19666 -0.01229,-0.006 -0.0385,-0.0168 -0.05424,-0.0184 z m -3.8740616,1.30106 c -0.045027,-0.002 -0.072742,0.0333 -0.094247,0.0691 -0.016383,0.041 -0.049156,0.0901 0,0.13104 0.057348,0.041 0.1065039,0.0984 0.1638527,0.13121 0.1556597,0.0819 0.3276412,0.13925 0.5078792,0.17202 0.024581,0.008 0.049187,0.0409 0.073766,0.0573 -0.032773,0.0164 -0.057348,0.0491 -0.081926,0.0491 -0.065541,0.008 -0.1392752,0.0165 -0.2048162,0.008 -0.1146969,-0.0164 -0.2293624,-0.0328 -0.3358663,-0.0738 -0.2212015,-0.0737 -0.409696,-0.2131 -0.5981263,-0.34419 -0.01639,-0.0164 -0.057416,-0.008 -0.065605,0 -0.040965,0.0573 -0.032705,0.11476 0.024643,0.14753 0.1310821,0.0819 0.2703893,0.16385 0.4014715,0.24578 0.2375861,0.15566 0.4915902,0.21301 0.7701398,0.16386 0.049156,-0.008 0.1063762,-0.0164 0.155532,-0.041 0.024581,-0.0164 0.073798,-0.0655 0.065605,-0.0819 -0.024581,-0.0819 -0.05741,-0.16385 -0.1475316,-0.20481 -0.1392745,-0.0574 -0.2866784,-0.11467 -0.4259529,-0.17202 -0.065542,-0.0246 -0.1228256,-0.0573 -0.1801744,-0.0819 0,-0.008 0.0081,-0.0164 0.024483,-0.0328 0.016383,0 0.041057,-3e-5 0.057447,0.008 0.1146969,0.0246 0.2211687,0.0574 0.3358662,0.0819 0.057348,0.008 0.1227936,0.008 0.188334,0 0.01639,0 0.041057,-0.0327 0.057447,-0.0573 -0.024581,-0.0163 -0.041026,-0.0409 -0.065605,-0.0491 -0.1310822,-0.0246 -0.2539078,-0.0492 -0.38499,-0.0738 l -0.2212972,-0.0491 c -0.00717,-0.002 -0.013889,-0.003 -0.020322,-0.004 z" fill="#000000" stroke-width="0.08192638"/></g><text x="0" y="41.458334" fill="#000000" font-size="5px" font-weight="bold" font-family="'Helvetica Neue', Helvetica, Arial-Unicode, Arial, Sans-serif">Created by kadi franson</text><text x="0" y="46.458334" fill="#000000" font-size="5px" font-weight="bold" font-family="'Helvetica Neue', Helvetica, Arial-Unicode, Arial, Sans-serif">from the Noun Project</text></svg>